<?xml version="1.0" encoding="utf-8"?>
<svg viewBox="0 0 500 500" xmlns="http://www.w3.org/2000/svg">
  <rect width="500" height="500" style="fill: rgba(162, 222, 208, 0.1); pointer-events: none;">
    <title>background-color</title>
  </rect>
  <g fill-rule="evenodd" transform="matrix(0.097231, 0, 0, 0.099568, 74.626183, 374.176331)" style="">
    <path d="m216 492h-171.894531c-13.289063 0-24.105469-10.816406-24.105469-24.105469v-423.789062c0-13.289063 10.816406-24.105469 24.105469-24.105469h171.894531c5.523438 0 10-4.476562 10-10s-4.476562-10-10-10h-171.894531c-24.320313 0-44.105469 19.785156-44.105469 44.105469v423.785156c0 24.324219 19.785156 44.109375 44.105469 44.109375h171.894531c5.523438 0 10-4.476562 10-10s-4.476562-10-10-10zm0 0" style="fill: rgba(162, 222, 208, 0.11);"/>
    <path d="m467.894531 0h-171.894531c-5.523438 0-10 4.476562-10 10s4.476562 10 10 10h171.894531c13.292969 0 24.105469 10.816406 24.105469 24.105469v423.785156c0 13.292969-10.8125 24.109375-24.105469 24.109375h-171.894531c-5.523438 0-10 4.476562-10 10s4.476562 10 10 10h171.894531c24.320313 0 44.105469-19.785156 44.105469-44.105469v-423.789062c0-24.320313-19.785156-44.105469-44.105469-44.105469zm0 0" style="fill: rgba(162, 222, 208, 0.11);"/>
    <path d="m142.03125 161.632812c0-20.171874-14.019531-37.121093-32.828125-41.640624v-24.976563h7.90625c5.523437 0 10-4.476563 10-10s-4.476563-10-10-10h-35.8125c-5.523437 0-10 4.476563-10 10s4.476563 10 10 10h7.90625v24.980469c-18.804687 4.515625-32.828125 21.464844-32.828125 41.636718 0 20.171876 14.023438 37.121094 32.828125 41.636719v227.191407h-7.90625c-5.523437 0-10 4.476562-10 10 0 5.523437 4.476563 10 10 10h35.8125c5.523437 0 10-4.476563 10-10 0-5.523438-4.476563-10-10-10h-7.90625v-227.191407c18.808594-4.515625 32.828125-21.464843 32.828125-41.636719zm-65.65625 0c0-12.589843 10.242188-22.828124 22.828125-22.828124 12.589844 0 22.828125 10.238281 22.828125 22.828124 0 12.585938-10.238281 22.828126-22.828125 22.828126-12.585937 0-22.828125-10.242188-22.828125-22.828126zm0 0" style="fill: rgba(162, 222, 208, 0.11);"/>
    <path d="m246.0625 360.304688c0-20.171876-14.023438-37.117188-32.832031-41.636719v-223.652344h7.90625c5.523437 0 10-4.476563 10-10s-4.476563-10-10-10h-35.8125c-5.523438 0-10 4.476563-10 10s4.476562 10 10 10h7.90625v223.652344c-18.804688 4.515625-32.828125 21.464843-32.828125 41.636719 0 20.171874 14.023437 37.121093 32.828125 41.640624v28.515626h-7.90625c-5.523438 0-10 4.476562-10 10 0 5.519531 4.476562 10 10 10h35.8125c5.523437 0 10-4.480469 10-10 0-5.523438-4.476563-10-10-10h-7.90625v-28.515626c18.808593-4.519531 32.832031-21.46875 32.832031-41.640624zm-65.660156 0c0-12.585938 10.242187-22.828126 22.828125-22.828126 12.589843 0 22.828125 10.242188 22.828125 22.828126 0 12.589843-10.238282 22.828124-22.828125 22.828124-12.585938 0-22.828125-10.238281-22.828125-22.828124zm0 0" style="fill: rgba(162, 222, 208, 0.11);"/>
    <path d="m368.460938 201.707031c0 20.171875 14.019531 37.117188 32.824218 41.636719v187.117188h-7.902344c-5.523437 0-10 4.476562-10 10 0 5.519531 4.476563 10 10 10h35.808594c5.523438 0 10-4.480469 10-10 0-5.523438-4.476562-10-10-10h-7.902344v-187.117188c18.804688-4.519531 32.828126-21.464844 32.828126-41.636719 0-20.175781-14.023438-37.121093-32.828126-41.640625v-65.050781h7.902344c5.523438 0 10-4.476563 10-10s-4.476562-10-10-10h-35.808594c-5.523437 0-10 4.476563-10 10s4.476563 10 10 10h7.902344v65.054687c-18.804687 4.515626-32.824218 21.460938-32.824218 41.636719zm65.65625 0c0 12.585938-10.242188 22.828125-22.832032 22.828125-12.585937 0-22.824218-10.242187-22.824218-22.828125 0-12.585937 10.230468-22.820312 22.8125-22.828125h.011718.015625c12.582031.007813 22.816407 10.242188 22.816407 22.828125zm0 0" style="fill: rgba(162, 222, 208, 0.11);"/>
    <path d="m325.164062 450.460938c5.523438 0 10-4.480469 10-10 0-5.523438-4.476562-10-10-10h-7.90625v-107.816407c18.808594-4.519531 32.832032-21.464843 32.832032-41.636719 0-20.171874-14.023438-37.121093-32.832032-41.640624v-144.351563h7.90625c5.523438 0 10-4.476563 10-10s-4.476562-10-10-10h-35.8125c-5.523437 0-10 4.476563-10 10s4.476563 10 10 10h7.90625v144.355469c-18.804687 4.515625-32.828124 21.464844-32.828124 41.636718 0 20.171876 14.023437 37.121094 32.828124 41.636719v107.816407h-7.90625c-5.523437 0-10 4.476562-10 10 0 5.519531 4.476563 10 10 10zm-40.734374-169.453126c0-12.589843 10.242187-22.828124 22.828124-22.828124 12.589844 0 22.832032 10.238281 22.832032 22.828124 0 12.585938-10.242188 22.828126-22.832032 22.828126-12.585937 0-22.828124-10.242188-22.828124-22.828126zm0 0" style="fill: rgba(162, 222, 208, 0.11);"/>
    <path d="m256 492c-5.507812 0-10 4.492188-10 10s4.492188 10 10 10 10-4.492188 10-10-4.492188-10-10-10zm0 0" style="fill: rgba(162, 222, 208, 0.11);"/>
    <path d="m256 20c5.507812 0 10-4.492188 10-10s-4.492188-10-10-10-10 4.492188-10 10 4.492188 10 10 10zm0 0" style="fill: rgba(162, 222, 208, 0.11);"/>
  </g>
  <g/>
  <g style="" transform="matrix(0.109527, 0, 0, 0.108832, 201.307327, 373.679321)">
    <path d="M 313.158 114.996 L 598.869 114.996 C 604.662 114.996 609.404 110.254 609.404 104.461 L 609.404 -14.523 C 609.404 -20.316 604.662 -25.054 598.869 -25.054 L 259.806 -25.054 C 254.017 -25.054 249.275 -20.312 249.275 -14.523 L 249.275 104.461 C 249.275 110.254 254.013 114.996 259.806 114.996 Z M 313.158 114.996" style="fill: rgba(162, 222, 208, 0.11);"/>
    <path d="M 281.146 114.996 L 313.158 114.996 L 313.158 224.422 L 281.146 224.422 Z M 281.146 114.996" style="fill: rgba(162, 222, 208, 0.11);"/>
    <path d="M 545.521 114.996 L 577.533 114.996 L 577.533 224.422 L 545.521 224.422 Z M 545.521 114.996" style="fill: rgba(162, 222, 208, 0.11);"/>
    <path d="M 545.521 224.422 L 265.279 224.422 C 256.478 224.422 249.275 231.625 249.275 240.426 C 249.275 249.231 256.478 256.434 265.279 256.434 L 593.396 256.434 C 602.201 256.434 609.4 249.231 609.4 240.426 C 609.4 231.625 602.201 224.422 593.396 224.422 Z M 545.521 224.422" style="fill: rgba(162, 222, 208, 0.11);"/>
    <path d="M 524.947 256.434 L 429.338 329.797 L 403.045 349.973 L 287.76 438.434 C 280.779 443.793 278.58 454.653 284.806 460.875 C 291.033 467.102 300.263 469.188 307.248 463.828 L 429.338 370.145 L 455.631 349.973 L 577.533 256.434 Z M 524.947 256.434" style="fill: rgba(162, 222, 208, 0.11);"/>
    <path d="M 429.338 329.797 L 333.728 256.434 L 281.146 256.434 L 403.049 349.973 Z M 429.338 329.797" style="fill: rgba(162, 222, 208, 0.11);"/>
    <path d="M 455.631 349.973 L 429.338 370.145 L 551.431 463.828 C 558.416 469.188 567.646 467.098 573.873 460.875 C 580.096 454.649 577.9 443.793 570.916 438.434 Z M 455.631 349.973" style="fill: rgba(162, 222, 208, 0.11);"/>
    <path d="M 432.607 6.832 L 444.951 27.313 L 468.279 32.735 C 471.017 33.363 472.248 36.731 470.181 39.012 L 454.596 56.988 L 456.654 80.895 C 456.881 83.59 454.146 85.985 451.127 84.555 L 429.338 75.344 L 407.256 84.68 C 404.627 85.789 401.799 83.676 402.029 80.895 L 404.076 56.988 L 388.381 38.887 C 386.494 36.707 387.678 33.356 390.392 32.735 L 413.724 27.313 L 426.099 6.781 C 427.592 4.301 431.181 4.379 432.607 6.832 Z M 432.607 6.832" style="fill: rgba(162, 222, 208, 0.11);"/>
  </g>
  <g fill-rule="evenodd" transform="matrix(0.116115, 0, 0, 0.116433, 370.875732, 372.367249)" style="">
    <path d="m256 381.71875c80.878906 0 146.84375-65.960938 146.84375-146.839844s-65.964844-146.84375-146.84375-146.84375-146.84375 65.964844-146.84375 146.84375 65.964844 146.839844 146.84375 146.839844zm0 0" style="fill: rgba(162, 222, 208, 0.11);"/>
    <path d="m340.753906 234.878906-130.992187-75.632812v151.261718l65.496093-37.816406zm0 0" style="fill: rgba(162, 222, 208, 0.11);"/>
    <path d="m256 78.035156c-86.484375 0-156.84375 70.359375-156.84375 156.84375 0 86.480469 70.359375 156.839844 156.84375 156.839844s156.839844-70.355469 156.839844-156.839844-70.359375-156.84375-156.839844-156.84375zm0 293.6875c-75.457031 0-136.84375-61.390625-136.84375-136.84375 0-75.457031 61.386719-136.84375 136.84375-136.84375 75.453125 0 136.84375 61.386719 136.84375 136.84375 0 75.453125-61.390625 136.84375-136.84375 136.84375zm0 0" style="fill: rgba(162, 222, 208, 0.11);"/>
    <path d="m294.078125 23.871094c102.152344 18.308594 176.300781 107.046875 176.300781 211.007812 0 5.523438 4.476563 10 10 10 5.519532 0 10-4.476562 10-10 0-55.316406-19.636718-109.015625-55.289062-151.199218-35.230469-41.6875-84.054688-69.917969-137.484375-79.496094-5.429688-.972656-10.632813 2.644531-11.605469 8.082031-.976562 5.433594 2.640625 10.632813 8.078125 11.605469zm0 0" style="fill: rgba(162, 222, 208, 0.11);"/>
    <path d="m217.917969 445.886719c-102.152344-18.308594-176.296875-107.050781-176.296875-211.007813 0-5.523437-4.476563-10-10-10-5.523438 0-10 4.476563-10 10 0 55.316406 19.632812 109.011719 55.285156 151.199219 35.230469 41.6875 84.058594 69.917969 137.484375 79.492187.597656.109376 1.191406.160157 1.777344.160157 4.75 0 8.960937-3.398438 9.828125-8.238281.976562-5.4375-2.640625-10.632813-8.078125-11.605469zm0 0" style="fill: rgba(162, 222, 208, 0.11);"/>
    <path d="m345.753906 226.21875-130.992187-75.632812c-3.09375-1.785157-6.90625-1.785157-10 0-3.09375 1.789062-5 5.089843-5 8.660156v151.261718c0 3.574219 1.90625 6.875 5 8.660157 1.546875.894531 3.273437 1.339843 5 1.339843 1.726562 0 3.453125-.445312 5-1.339843l130.992187-75.628907c3.09375-1.789062 5-5.089843 5-8.660156 0-3.574218-1.90625-6.875-5-8.660156zm-125.992187 66.96875v-116.621094l100.992187 58.3125zm0 0" style="fill: rgba(162, 222, 208, 0.11);"/>
    <path d="m28.960938 187.605469c.171874.308593.355468.605469.554687.894531.054687.074219.101563.152344.15625.226562.238281.320313.492187.628907.769531.921876.070313.074218.144532.144531.21875.214843.222656.222657.457032.4375.703125.640625.085938.066406.167969.140625.257813.207032.628906.488281 1.328125.898437 2.078125 1.230468.101562.042969.203125.082032.304687.121094.277344.113281.5625.210938.855469.296875.117187.035156.230469.070313.351563.101563.0625.019531.125.042968.1875.054687.210937.050781.421874.078125.632812.113281.144531.023438.289062.058594.4375.078125.421875.050781.839844.082031 1.253906.082031.351563 0 .703125-.023437 1.054688-.0625.097656-.011718.191406-.023437.289062-.039062.292969-.039062.578125-.089844.859375-.15625.070313-.015625.140625-.023438.207031-.042969.347657-.085937.683594-.191406 1.015626-.3125.082031-.03125.164062-.066406.246093-.097656.292969-.117187.578125-.246094.855469-.386719.042969-.019531.085938-.035156.128906-.058594l52.519532-27.710937c4.882812-2.578125 6.753906-8.625 4.175781-13.511719-2.578125-4.882812-8.625-6.753906-13.511719-4.175781l-31.550781 16.648437c25.519531-71.855468 87.722656-125.347656 163.910156-139.003906 5.433594-.972656 9.050781-6.171875 8.078125-11.605468-.976562-5.4375-6.171875-9.054688-11.609375-8.082032-44.941406 8.058594-86.300781 29.003906-119.601563 60.570313-27.050781 25.644531-47.398437 56.972656-59.691406 91.636719l-16.25-30.792969c-2.578125-4.886719-8.625-6.753907-13.511718-4.179688-4.886719 2.578125-6.757813 8.628907-4.179688 13.511719l27.710938 52.515625c.027343.054687.066406.097656.09375.152344zm0 0" style="fill: rgba(162, 222, 208, 0.11);"/>
    <path d="m510.839844 334.816406-27.710938-52.515625c-.046875-.089843-.105468-.171875-.15625-.261719-.085937-.15625-.175781-.3125-.273437-.464843-.089844-.136719-.183594-.269531-.273438-.402344-.09375-.128906-.1875-.257813-.285156-.382813-.109375-.136718-.21875-.269531-.332031-.398437-.101563-.113281-.199219-.226563-.304688-.335937-.121094-.125-.242187-.246094-.371094-.363282-.109374-.105468-.222656-.210937-.339843-.3125-.128907-.109375-.253907-.210937-.386719-.308594-.128906-.101562-.261719-.199218-.394531-.292968-.125-.089844-.253907-.175782-.386719-.257813-.144531-.09375-.292969-.179687-.445312-.265625-.128907-.074218-.265626-.144531-.398438-.210937-.15625-.078125-.308594-.152344-.46875-.222657-.144531-.066406-.296875-.125-.445312-.179687-.152344-.058594-.300782-.113281-.453126-.167969-.175781-.054687-.351562-.101562-.527343-.152344-.09375-.023437-.1875-.058593-.285157-.082031-.046874-.011719-.089843-.015625-.136718-.027343-.1875-.039063-.375-.074219-.566406-.101563-.136719-.023437-.273438-.050781-.414063-.066406-.183594-.023438-.367187-.035157-.550781-.046875-.144532-.007813-.289063-.023438-.433594-.023438-.175781-.003906-.355469.003906-.53125.007813-.148438.007812-.296875.007812-.445312.015625-.175782.015625-.347657.039062-.519532.0625-.148437.019531-.300781.035156-.449218.0625-.167969.027344-.332032.070312-.5.105468-.152344.035157-.304688.066407-.453126.109376-.15625.042968-.3125.097656-.464843.152343-.160157.050781-.316407.101563-.472657.164063-.144531.054687-.285156.117187-.425781.183594-.164062.070312-.324219.140624-.484375.222656-.042968.023437-.089844.039062-.132812.0625l-52.515625 27.710937c-4.886719 2.578125-6.757813 8.628907-4.179688 13.511719s8.625 6.753906 13.511719 4.175781l31.550781-16.648437c-25.519531 71.855468-87.722656 125.347656-163.910156 139.003906-5.433594.972656-9.054687 6.171875-8.078125 11.605469.867188 4.839843 5.082031 8.238281 9.832031 8.238281.585938 0 1.179688-.050781 1.773438-.160156 44.945312-8.054688 86.304687-29 119.605469-60.570313 27.050781-25.644531 47.398437-56.96875 59.695312-91.632812l16.25 30.792969c1.789062 3.398437 5.261719 5.335937 8.851562 5.335937 1.574219 0 3.171876-.375 4.660157-1.160156 4.882812-2.574219 6.75-8.621094 4.171875-13.507813zm0 0" style="fill: rgba(162, 222, 208, 0.11);"/>
    <path d="m256 449.257812c-5.507812 0-10 4.492188-10 10 0 5.503907 4.492188 10 10 10s10-4.496093 10-10c0-5.507812-4.492188-10-10-10zm0 0" style="fill: rgba(162, 222, 208, 0.11);"/>
    <path d="m256 20.5c5.507812 0 10-4.492188 10-10s-4.492188-10-10-10-10 4.492188-10 10 4.492188 10 10 10zm0 0" style="fill: rgba(162, 222, 208, 0.11);"/>
  </g>
  <g fill-rule="evenodd" transform="matrix(0.117518, 0, 0, 0.123207, 73.851479, 222.010391)" style="">
    <path d="m57.769531 136.382812h318.390625c15.738282 0 28.617188 12.878907 28.617188 28.621094v179.179688c0 15.742187-12.878906 28.621094-28.617188 28.621094h-318.390625c-15.742187 0-28.621093-12.878907-28.621093-28.621094v-179.179688c0-15.742187 12.878906-28.621094 28.621093-28.621094zm0 0" style="fill: rgba(162, 222, 208, 0.11);"/>
    <path d="m113.480469 216.964844c56.996093 0 103.484375-46.484375 103.484375-103.480469s-46.488282-103.484375-103.484375-103.484375c-56.996094 0-103.480469 46.488281-103.480469 103.484375s46.484375 103.480469 103.480469 103.480469zm0 0" style="fill: rgba(162, 222, 208, 0.11);"/>
    <path d="m320.445312 216.964844c56.996094 0 103.484376-46.484375 103.484376-103.480469s-46.488282-103.484375-103.484376-103.484375c-56.996093 0-103.480468 46.488281-103.480468 103.484375s46.484375 103.480469 103.480468 103.480469zm0 0" style="fill: rgba(162, 222, 208, 0.11);"/>
    <path d="m457.070312 187.570312h44.929688v134.046876h-44.929688zm0 0" style="fill: rgba(162, 222, 208, 0.11);"/>
    <path d="m404.777344 215.644531 52.292968-28.074219v134.046876l-52.292968-28.074219zm0 0" style="fill: rgba(162, 222, 208, 0.11);"/>
  </g>
  <path d="M 87.471 263.639 L 82.45 263.639 C 81.802 263.639 81.275 263.089 81.275 262.408 C 81.275 261.728 81.802 261.176 82.45 261.176 L 87.471 261.176 C 88.119 261.176 88.645 261.728 88.645 262.408 C 88.645 263.089 88.119 263.639 87.471 263.639 Z M 87.471 263.639" style="fill: rgba(162, 222, 208, 0.11);"/>
  <path d="M 87.187 230.051 C 84.062 230.051 81.52 232.716 81.52 235.993 C 81.52 239.269 84.062 241.933 87.187 241.933 C 90.312 241.933 92.854 239.269 92.854 235.993 C 92.854 232.716 90.312 230.051 87.187 230.051 Z M 87.187 239.47 C 85.359 239.47 83.871 237.91 83.871 235.993 C 83.871 234.075 85.359 232.516 87.187 232.516 C 89.017 232.516 90.503 234.075 90.503 235.993 C 90.503 237.91 89.017 239.47 87.187 239.47 Z M 87.187 239.47" fill-rule="evenodd" style="fill: rgba(162, 222, 208, 0.11);"/>
  <path d="M 111.509 230.051 C 108.385 230.051 105.842 232.716 105.842 235.993 C 105.842 239.269 108.385 241.933 111.509 241.933 C 114.635 241.933 117.176 239.269 117.176 235.993 C 117.176 232.716 114.635 230.051 111.509 230.051 Z M 111.509 239.47 C 109.68 239.47 108.193 237.91 108.193 235.993 C 108.193 234.075 109.68 232.516 111.509 232.516 C 113.338 232.516 114.826 234.075 114.826 235.993 C 114.826 237.91 113.338 239.47 111.509 239.47 Z M 111.509 239.47" fill-rule="evenodd" style="fill: rgba(162, 222, 208, 0.11);"/>
  <path d="M 132.845 243.888 L 127.566 243.888 C 127.524 243.888 127.484 243.891 127.443 243.895 C 127.442 243.895 127.442 243.896 127.441 243.896 C 127.395 243.901 127.35 243.91 127.306 243.921 C 127.295 243.922 127.284 243.925 127.274 243.928 C 127.238 243.938 127.202 243.949 127.168 243.962 C 127.157 243.966 127.147 243.97 127.137 243.975 C 127.091 243.994 127.045 244.014 127.001 244.039 L 122.596 246.52 L 122.596 243.757 C 124.016 241.534 124.845 238.863 124.845 235.993 C 124.845 228.283 118.862 222.01 111.509 222.01 C 106.105 222.01 101.44 225.398 99.348 230.255 C 97.256 225.398 92.591 222.01 87.187 222.01 C 79.834 222.01 73.851 228.283 73.851 235.993 C 73.851 238.863 74.681 241.534 76.101 243.757 L 76.101 264.416 C 76.101 267.04 78.138 269.175 80.64 269.175 L 94.648 269.175 C 95.297 269.175 95.823 268.623 95.823 267.943 C 95.823 267.262 95.297 266.711 94.648 266.711 L 80.64 266.711 C 79.433 266.711 78.452 265.683 78.452 264.416 L 78.452 246.549 C 80.794 248.682 83.85 249.975 87.188 249.975 C 92.592 249.975 97.256 246.587 99.348 241.73 C 101.441 246.587 106.105 249.975 111.509 249.975 C 114.847 249.975 117.903 248.682 120.244 246.549 L 120.244 264.416 C 120.244 265.683 119.263 266.711 118.056 266.711 L 104.049 266.711 C 103.4 266.711 102.873 267.262 102.873 267.943 C 102.873 268.623 103.4 269.175 104.049 269.175 L 118.056 269.175 C 120.559 269.175 122.596 267.04 122.596 264.416 L 122.596 260.237 L 127.001 262.717 C 127.044 262.742 127.087 262.762 127.132 262.78 C 127.143 262.784 127.152 262.788 127.163 262.793 C 127.195 262.805 127.228 262.816 127.261 262.825 C 127.273 262.828 127.285 262.831 127.298 262.835 C 127.33 262.843 127.364 262.849 127.397 262.854 C 127.409 262.856 127.42 262.858 127.432 262.86 C 127.476 262.866 127.52 262.868 127.566 262.868 L 132.845 262.868 C 133.495 262.868 134.02 262.317 134.02 261.636 L 134.02 245.12 C 134.02 244.44 133.495 243.888 132.845 243.888 Z M 87.187 247.511 C 81.13 247.511 76.201 242.343 76.201 235.993 C 76.201 229.642 81.13 224.475 87.187 224.475 C 93.244 224.475 98.172 229.641 98.174 235.99 L 98.174 235.993 L 98.174 235.995 C 98.172 242.345 93.244 247.511 87.187 247.511 Z M 111.509 247.511 C 105.452 247.511 100.525 242.345 100.523 235.995 C 100.523 235.994 100.523 235.994 100.523 235.993 C 100.523 235.992 100.523 235.991 100.523 235.99 C 100.525 229.641 105.452 224.475 111.509 224.475 C 117.567 224.475 122.495 229.642 122.495 235.993 C 122.495 242.343 117.567 247.511 111.509 247.511 Z M 122.596 249.317 L 126.39 247.181 L 126.39 259.577 L 122.596 257.441 Z M 131.671 260.404 L 128.74 260.404 L 128.74 246.353 L 131.671 246.353 Z M 131.671 260.404" fill-rule="evenodd" style="fill: rgba(162, 222, 208, 0.11);"/>
  <path d="M 99.348 266.711 C 98.701 266.711 98.174 267.265 98.174 267.943 C 98.174 268.621 98.701 269.175 99.348 269.175 C 99.996 269.175 100.523 268.621 100.523 267.943 C 100.523 267.265 99.996 266.711 99.348 266.711 Z M 99.348 266.711" fill-rule="evenodd" style="fill: rgba(162, 222, 208, 0.11);"/>
  <g fill-rule="evenodd" transform="matrix(0.098402, 0, 0, 0.090661, 229.775589, 226.175583)" style="">
    <path d="m89.289062 393.765625c-43.789062 0-79.289062-35.5-79.289062-79.292969 0-43.789062 35.5-79.289062 79.289062-79.289062zm0 0" style="fill: rgba(162, 222, 208, 0.11);"/>
    <path d="m342.113281 393.765625c43.789063 0 79.289063-35.5 79.289063-79.292969 0-43.789062-35.5-79.289062-79.289063-79.289062zm0 0" style="fill: rgba(162, 222, 208, 0.11);"/>
    <path d="m175.855469 502c29.511719 0 53.582031-14.671875 53.582031-32.660156 0-17.988282-24.070312-32.660156-53.582031-32.660156s-53.585938 14.671874-53.585938 32.660156c0 17.988281 24.074219 32.660156 53.585938 32.660156zm0 0" style="fill: rgba(162, 222, 208, 0.11);"/>
    <path d="m89.289062 225.183594c-27.929687 0-52.902343 12.894531-69.289062 33.042968v-42.527343c0-48.292969 17.941406-94.765625 50.519531-130.851563 3.699219-4.101562 3.378907-10.421875-.722656-14.125-4.101563-3.699218-10.421875-3.375-14.121094.722656-35.902343 39.769532-55.675781 91-55.675781 144.253907v98.773437c0 49.234375 40.054688 89.292969 89.289062 89.292969 5.523438 0 10-4.480469 10-10v-158.582031c0-5.523438-4.476562-10-10-10zm-10 157.859375c-33.484374-4.859375-59.289062-33.757813-59.289062-68.570313 0-34.808594 25.804688-63.707031 59.289062-68.570312zm0 0" style="fill: rgba(162, 222, 208, 0.11);"/>
    <path d="m368.050781 63.355469c-40.855469-40.855469-94.960937-63.355469-152.351562-63.355469-32.601563 0-63.980469 7.179688-93.269531 21.335938-4.972657 2.402343-7.054688 8.382812-4.652344 13.355468 2.40625 4.972656 8.386718 7.054688 13.355468 4.648438 26.554688-12.832032 55.007813-19.339844 84.570313-19.339844 107.90625 0 195.699219 87.789062 195.699219 195.699219v42.523437c-16.386719-20.144531-41.355469-33.039062-69.289063-33.039062-5.523437 0-10 4.476562-10 10v158.578125c0 5.523437 4.476563 10 10 10 49.234375 0 89.289063-40.054688 89.289063-89.289063v-98.773437c0-57.386719-22.5-111.492188-63.351563-152.34375zm-15.9375 319.6875v-137.140625c33.484375 4.863281 59.289063 33.757812 59.289063 68.570312s-25.804688 63.710938-59.289063 68.570313zm0 0" style="fill: rgba(162, 222, 208, 0.11);"/>
    <path d="m296.675781 264.867188-61.238281-45.925782c-3.03125-2.273437-7.085938-2.636718-10.472656-.945312-3.390625 1.695312-5.527344 5.15625-5.527344 8.945312v81.199219c0 5.519531 4.476562 10 10 10 5.519531 0 10-4.480469 10-10v-61.199219l41.238281 30.925782v63.382812c0 5.523438 4.476563 10 10 10 5.523438 0 10-4.476562 10-10v-68.382812c0-3.144532-1.480469-6.109376-4-8zm0 0" style="fill: rgba(162, 222, 208, 0.11);"/>
    <path d="m239.4375 388.140625c0-5.523437-4.480469-10-10-10-5.523438 0-10 4.476563-10 10v49.890625c-11.304688-7.070312-26.558594-11.351562-43.582031-11.351562-35.65625 0-63.585938 18.738281-63.585938 42.660156s27.929688 42.660156 63.585938 42.660156c35.652343 0 63.582031-18.738281 63.582031-42.660156 0-.007813 0-.019532 0-.027344zm-63.582031 103.859375c-24.945313 0-43.585938-11.964844-43.585938-22.660156 0-10.695313 18.640625-22.660156 43.585938-22.660156 24.929687 0 43.558593 11.949218 43.582031 22.644531v.027343c-.011719 10.691407-18.648438 22.648438-43.582031 22.648438zm0 0" style="fill: rgba(162, 222, 208, 0.11);"/>
    <path d="m92.621094 41.160156c-5.507813 0-10 4.492188-10 10 0 5.507813 4.492187 10 10 10 5.507812 0 10-4.492187 10-10 0-5.507812-4.492188-10-10-10zm0 0" style="fill: rgba(162, 222, 208, 0.11);"/>
    <path d="m229.4375 338.140625c-5.507812 0-10 4.492187-10 10s4.492188 10 10 10 10-4.492187 10-10-4.492188-10-10-10zm0 0" style="fill: rgba(162, 222, 208, 0.11);"/>
  </g>
  <g fill-rule="evenodd" transform="matrix(0.118987, 0, 0, 0.114636, 386.852234, 218.882645)" style="">
    <path d="m89.480469 370h41.039062c0-11.296875.742188-21.789062 1.929688-32 4.71875-40.578125 16.445312-76.777344 16.445312-141.722656 27.234375-19.039063 20.503907-15.625 23.855469-49.726563 4.070312-29.421875 11.480469-44.539062-15-56.214843l-24.347656-10.742188c0-11.628906 6.664062-27.429688 5.355468-42.648438-1.265624-14.734374-11.347656-26.945312-28.757812-26.945312-17.40625 0-27.488281 12.210938-28.753906 26.949219-1.308594 15.214843 5.351562 31.019531 5.351562 42.648437l-24.347656 10.738282c-26.480469 11.675781-19.070312 26.796874-14.996094 56.214843 3.347656 34.101563-3.382812 30.6875 23.851563 49.730469 0 64.941406 11.730469 101.140625 16.445312 141.71875 1.1875 10.210938 1.929688 20.703125 1.929688 32zm0 0" style="fill: rgba(162, 222, 208, 0.11);"/>
    <path d="m89.480469 370c0-11.296875-.742188-21.789062-1.929688-32h-45.550781c-17.597656 0-32 14.398438-32 32 0 17.597656 14.402344 32 32 32h136c17.601562 0 32-14.402344 32-32 0-17.601562-14.398438-32-32-32h-45.550781c-1.1875 10.210938-1.929688 20.703125-1.929688 32zm0 0" style="fill: rgba(162, 222, 208, 0.11);"/>
    <path d="m178 402h-136c-17.597656 0-32-14.402344-32-32v100c0 17.601562 14.402344 32 32 32h136c17.601562 0 32-14.402344 32-32v-100c0 17.597656-14.398438 32-32 32zm-108 34h80v32h-80zm0 0" style="fill: rgba(162, 222, 208, 0.11);"/>
    <path d="m70 436h80v32h-80zm0 0" style="fill: rgba(162, 222, 208, 0.11);"/>
  </g>
  <path d="M 404.7 267.717 L 395.182 267.717 C 394.524 267.717 393.991 268.23 393.991 268.863 L 393.991 272.532 C 393.991 273.166 394.524 273.678 395.182 273.678 L 404.7 273.678 C 405.357 273.678 405.89 273.166 405.89 272.532 L 405.89 268.863 C 405.89 268.23 405.357 267.717 404.7 267.717 Z M 403.51 271.385 L 396.371 271.385 L 396.371 270.01 L 403.51 270.01 Z M 403.51 271.385" style="fill: rgba(162, 222, 208, 0.11);"/>
  <path d="M 404.611 266.113 L 404.614 266.113 C 405.271 266.113 405.802 265.599 405.802 264.966 C 405.802 264.332 405.268 263.82 404.611 263.82 C 403.954 263.82 403.422 264.332 403.422 264.966 C 403.422 265.599 403.954 266.113 404.611 266.113 Z M 404.611 266.113" style="fill: rgba(162, 222, 208, 0.11);"/>
  <path d="M 408.032 256.483 L 403.969 256.483 C 404.121 255.492 404.304 254.495 404.497 253.443 C 405.065 250.347 405.707 246.855 405.755 241.981 C 406.794 241.272 407.436 240.784 407.843 240.194 C 408.364 239.442 408.401 238.718 408.458 237.622 C 408.483 237.148 408.513 236.56 408.589 235.817 C 408.657 235.346 408.733 234.911 408.805 234.489 C 409.233 232.021 409.637 229.691 406.103 228.189 L 403.989 227.291 C 404.039 226.992 404.111 226.666 404.184 226.331 C 404.404 225.328 404.653 224.193 404.548 223.02 C 404.327 220.545 402.476 218.883 399.941 218.883 C 397.406 218.883 395.554 220.545 395.334 223.019 C 395.229 224.192 395.477 225.328 395.697 226.33 C 395.77 226.666 395.842 226.992 395.893 227.291 L 393.779 228.189 C 392.973 228.532 392.356 228.916 391.893 229.365 C 391.431 229.814 391.432 230.54 391.899 230.986 C 392.365 231.432 393.119 231.43 393.582 230.981 C 393.828 230.742 394.217 230.508 394.739 230.287 L 397.636 229.055 C 398.067 228.873 398.346 228.461 398.346 228.006 C 398.346 227.321 398.191 226.61 398.025 225.856 C 397.831 224.969 397.63 224.052 397.705 223.216 C 397.748 222.737 398.035 221.175 399.941 221.175 C 401.847 221.175 402.134 222.737 402.176 223.216 C 402.251 224.052 402.05 224.969 401.856 225.857 C 401.691 226.61 401.535 227.322 401.535 228.007 C 401.535 228.461 401.814 228.873 402.245 229.055 L 405.142 230.287 C 406.929 231.046 406.902 231.552 406.458 234.111 C 406.385 234.534 406.302 235.015 406.228 235.526 C 406.226 235.54 406.224 235.555 406.223 235.571 C 406.141 236.378 406.108 237.004 406.082 237.508 C 406.034 238.405 406.007 238.714 405.863 238.923 C 405.635 239.253 404.933 239.739 403.887 240.443 C 403.568 240.658 403.378 241.009 403.378 241.383 C 403.378 246.371 402.727 249.916 402.153 253.043 C 401.878 254.538 401.613 255.986 401.431 257.496 C 401.429 257.505 401.428 257.514 401.427 257.522 C 401.326 258.372 401.25 259.242 401.214 260.151 L 398.667 260.151 C 398.631 259.242 398.555 258.372 398.453 257.522 C 398.452 257.514 398.451 257.505 398.451 257.496 C 398.268 255.986 398.003 254.538 397.728 253.043 C 397.154 249.916 396.502 246.371 396.502 241.383 C 396.502 241.009 396.313 240.658 395.995 240.443 C 394.987 239.765 394.307 239.295 394.051 238.966 C 393.915 238.793 393.862 238.61 393.82 237.869 C 393.783 237.236 393.22 236.753 392.565 236.789 C 391.908 236.825 391.407 237.366 391.444 237.997 C 391.562 240.024 392.077 240.58 394.126 241.98 C 394.175 246.854 394.817 250.347 395.385 253.443 C 395.579 254.495 395.761 255.492 395.912 256.483 L 391.85 256.483 C 389.094 256.483 386.852 258.643 386.852 261.297 L 386.852 272.761 C 386.852 275.416 389.094 277.576 391.85 277.576 L 408.032 277.576 C 410.788 277.576 413.029 275.416 413.029 272.761 L 413.029 261.297 C 413.029 258.643 410.788 256.483 408.032 256.483 Z M 408.032 275.283 L 391.85 275.283 C 390.406 275.283 389.232 274.152 389.232 272.761 L 389.232 265.396 C 389.994 265.85 390.89 266.113 391.85 266.113 L 399.826 266.113 C 400.484 266.113 401.016 265.599 401.016 264.966 C 401.016 264.332 400.484 263.82 399.826 263.82 L 391.85 263.82 C 390.406 263.82 389.232 262.688 389.232 261.297 C 389.232 259.906 390.406 258.776 391.85 258.776 L 396.196 258.776 C 396.268 259.585 396.309 260.418 396.309 261.297 C 396.309 261.931 396.842 262.444 397.499 262.444 L 402.383 262.444 C 403.04 262.444 403.572 261.931 403.572 261.297 C 403.572 260.418 403.614 259.585 403.686 258.776 L 408.032 258.776 C 409.475 258.776 410.649 259.906 410.649 261.297 C 410.649 262.688 409.475 263.82 408.032 263.82 C 407.375 263.82 406.842 264.332 406.842 264.966 C 406.842 265.599 407.375 266.113 408.032 266.113 C 408.991 266.113 409.887 265.85 410.649 265.396 L 410.649 272.761 C 410.649 274.152 409.475 275.283 408.032 275.283 Z M 408.032 275.283" style="fill: rgba(162, 222, 208, 0.11);"/>
  <path d="M 393.515 234.702 C 393.515 235.336 392.983 235.848 392.326 235.848 C 391.668 235.848 391.136 235.336 391.136 234.702 C 391.136 234.07 391.668 233.555 392.326 233.555 C 392.983 233.555 393.515 234.07 393.515 234.702 Z M 393.515 234.702" style="fill: rgba(162, 222, 208, 0.11);"/>
  <path style="fill: rgba(162, 222, 208, 0.11);" d="M 223.525 95.636 L 223.525 121.35 L 276.85 121.35 L 276.85 95.636 L 223.525 95.636 Z"/>
  <g transform="matrix(0.108384, 0, 0, 0.110834, 222.441055, 65.710686)" style="">
    <rect x="50" y="372" style="fill: rgba(162, 222, 208, 0.11);" width="80" height="80"/>
    <rect x="382" y="372" style="fill: rgba(162, 222, 208, 0.11);" width="80" height="80"/>
  </g>
  <rect x="241.517" y="104.725" style="fill: rgba(162, 222, 208, 0.11);" width="17.341" height="16.625"/>
  <rect x="228.51" y="82.114" style="fill: rgba(162, 222, 208, 0.11);" width="43.353" height="13.522"/>
  <polygon style="fill: rgba(162, 222, 208, 0.11);" points="268.721 77.681 268.721 73.248 231.762 73.248 231.762 77.681 228.51 77.681 228.51 82.114 271.864 82.114 271.864 77.681"/>
  <rect x="235.013" y="66.82" style="fill: rgba(162, 222, 208, 0.11);" width="30.347" height="6.428"/>
  <g transform="matrix(0.108384, 0, 0, 0.110834, 222.441055, 65.710686)" style="">
    <path style="fill: rgba(162, 222, 208, 0.11);" d="M276,148h-40V30c0-11.046,8.954-20,20-20c11.046,0,20,8.954,20,20V148z"/>
    <path style="fill: rgba(162, 222, 208, 0.11);" d="M336,148h-60V70c0-11.046,8.954-20,20-20s20,8.954,20,20v37L336,148z"/>
    <path style="fill: rgba(162, 222, 208, 0.11);" d="M236,148h-60l20-41.5V70c0-11.046,8.954-20,20-20s20,8.954,20,20V148z"/>
  </g>
  <path d="M 276.85 94.528 L 272.948 94.528 L 272.948 77.681 C 272.948 77.069 272.462 76.573 271.864 76.573 L 269.805 76.573 L 269.805 73.248 C 269.805 72.636 269.319 72.14 268.721 72.14 L 266.445 72.14 L 266.445 66.82 C 266.445 66.208 265.959 65.711 265.361 65.711 L 235.013 65.711 C 234.415 65.711 233.93 66.208 233.93 66.82 L 233.93 72.14 L 231.762 72.14 C 231.163 72.14 230.678 72.636 230.678 73.248 L 230.678 76.573 L 228.51 76.573 C 227.912 76.573 227.427 77.069 227.427 77.681 L 227.427 94.528 L 223.525 94.528 C 222.926 94.528 222.441 95.024 222.441 95.636 L 222.441 121.35 C 222.441 121.962 222.926 122.458 223.525 122.458 L 276.85 122.458 C 277.448 122.458 277.933 121.962 277.933 121.35 L 277.933 95.636 C 277.933 95.024 277.448 94.528 276.85 94.528 Z M 267.637 74.356 L 267.637 76.573 L 262.543 76.573 C 261.944 76.573 261.459 77.069 261.459 77.681 C 261.459 78.293 261.944 78.79 262.543 78.79 L 270.78 78.79 L 270.78 81.006 L 259.535 81.006 L 257.774 77.314 L 257.774 74.356 L 267.637 74.356 Z M 264.277 67.928 L 264.277 72.14 L 257.502 72.14 C 256.999 70.966 255.853 70.144 254.523 70.144 C 254.143 70.144 253.778 70.212 253.439 70.335 C 253.439 69.535 253.519 68.696 253.252 67.928 C 253.252 67.928 264.277 67.928 264.277 67.928 Z M 255.716 78.056 L 257.123 81.006 L 253.439 81.006 L 253.439 73.469 C 253.439 72.858 253.925 72.361 254.523 72.361 C 255.12 72.361 255.606 72.858 255.606 73.469 L 255.606 77.57 C 255.606 77.739 255.644 77.905 255.716 78.056 Z M 249.103 73.469 L 249.103 69.036 C 249.103 68.425 249.59 67.928 250.187 67.928 C 250.785 67.928 251.271 68.425 251.271 69.036 L 251.271 73.469 L 251.271 81.006 L 249.103 81.006 L 249.103 73.469 Z M 236.097 67.928 C 236.097 67.928 247.118 67.928 247.122 67.928 C 246.92 67.93 246.834 70.298 246.936 70.335 C 246.596 70.212 246.232 70.144 245.852 70.144 C 244.521 70.144 243.375 70.966 242.873 72.14 L 236.097 72.14 L 236.097 67.928 Z M 246.936 73.469 L 246.936 81.006 L 243.242 81.006 L 244.661 77.996 C 244.731 77.846 244.768 77.682 244.768 77.515 L 244.768 73.469 C 244.768 72.858 245.254 72.361 245.852 72.361 C 246.449 72.361 246.936 72.858 246.936 73.469 Z M 229.594 78.79 L 237.94 78.79 C 239.349 78.79 239.349 76.573 237.94 76.573 L 232.846 76.573 L 232.846 74.356 L 242.6 74.356 L 242.6 77.262 L 240.836 81.006 L 229.594 81.006 L 229.594 78.79 Z M 229.594 83.223 L 270.78 83.223 L 270.78 94.528 L 229.594 94.528 L 229.594 83.223 Z M 249.103 120.241 L 242.6 120.241 L 242.6 105.833 L 249.103 105.833 L 249.103 120.241 Z M 257.774 120.241 L 251.271 120.241 L 251.271 105.833 L 257.774 105.833 L 257.774 120.241 Z M 275.766 98.961 L 254.523 98.961 C 253.924 98.961 253.439 99.459 253.439 100.07 C 253.439 100.68 253.924 101.178 254.523 101.178 L 275.766 101.178 L 275.766 120.241 L 259.942 120.241 L 259.942 104.725 C 259.942 104.113 259.456 103.616 258.858 103.616 L 241.517 103.616 C 240.918 103.616 240.433 104.113 240.433 104.725 L 240.433 120.241 L 224.609 120.241 L 224.609 101.178 L 245.852 101.178 C 246.449 101.178 246.936 100.68 246.936 100.07 C 246.936 99.459 246.449 98.961 245.852 98.961 L 224.609 98.961 L 224.609 96.745 L 275.766 96.745 L 275.766 98.961 Z" style="fill: rgba(162, 222, 208, 0.11);"/>
  <path d="M 234.98 86.574 C 235.539 86.574 235.829 86.874 235.848 87.472 C 235.868 87.785 236.122 87.941 236.609 87.941 C 237.095 87.941 237.37 87.72 237.37 87.203 C 237.37 85.845 236.088 85.218 234.922 85.218 C 233.526 85.218 232.581 86.154 232.581 87.572 C 232.581 87.577 232.581 90.216 232.581 90.216 C 232.581 91.643 233.517 92.57 234.922 92.57 C 236.137 92.57 237.37 91.86 237.37 90.485 C 237.37 89.967 237.08 89.747 236.599 89.747 C 236.125 89.747 235.874 89.903 235.848 90.215 C 235.796 90.769 235.595 91.213 234.99 91.213 C 234.398 91.213 234.102 90.88 234.102 90.215 L 234.102 87.572 C 234.102 86.907 234.395 86.574 234.98 86.574 Z" style="fill: rgba(162, 222, 208, 0.11);"/>
  <path d="M 239.633 85.218 C 239.355 85.218 238.872 85.318 238.872 85.687 C 238.872 85.74 238.872 92.031 238.872 92.031 C 238.872 92.408 239.361 92.51 239.633 92.51 C 239.915 92.51 240.394 92.404 240.394 92.031 C 240.394 91.979 240.394 85.687 240.394 85.687 C 240.394 85.318 239.915 85.218 239.633 85.218 Z" style="fill: rgba(162, 222, 208, 0.11);"/>
  <path d="M 246.403 85.218 C 246.124 85.218 245.642 85.318 245.642 85.687 C 245.642 85.716 245.642 89.078 245.642 89.078 L 244.061 85.996 C 243.796 85.474 243.537 85.218 242.94 85.218 C 242.659 85.218 242.179 85.326 242.179 85.697 C 242.179 85.747 242.179 92.031 242.179 92.031 C 242.179 92.41 242.65 92.51 242.94 92.51 C 243.228 92.51 243.701 92.41 243.701 92.031 C 243.701 92.003 243.701 88.639 243.701 88.639 L 245.554 92.091 C 245.703 92.37 245.986 92.51 246.403 92.51 C 246.685 92.51 247.163 92.401 247.163 92.031 C 247.163 92.027 247.163 85.687 247.163 85.687 C 247.163 85.314 246.686 85.218 246.403 85.218 Z" style="fill: rgba(162, 222, 208, 0.11);"/>
  <path d="M 253.084 86.574 C 253.425 86.574 253.543 86.173 253.543 85.886 C 253.543 85.608 253.412 85.218 253.084 85.218 C 253.063 85.218 249.612 85.218 249.612 85.218 C 249.333 85.218 248.948 85.354 248.948 85.697 C 248.948 85.732 248.948 92.031 248.948 92.031 C 248.948 92.382 249.324 92.51 249.612 92.51 L 253.084 92.51 C 253.426 92.51 253.543 92.12 253.543 91.841 C 253.543 91.557 253.427 91.153 253.084 91.153 C 253.076 91.153 250.47 91.153 250.47 91.153 L 250.47 89.457 L 251.933 89.457 C 252.241 89.457 252.392 89.152 252.392 88.869 C 252.392 88.595 252.242 88.26 251.933 88.26 C 251.919 88.26 250.47 88.26 250.47 88.26 L 250.47 86.574 L 253.084 86.574 L 253.084 86.574 Z" style="fill: rgba(162, 222, 208, 0.11);"/>
  <path d="M 260.068 85.218 C 259.493 85.218 259.16 85.511 258.888 85.996 C 258.886 86 257.883 87.792 257.883 87.792 L 256.879 85.996 C 256.597 85.491 256.275 85.218 255.698 85.218 C 255.236 85.218 254.937 85.542 254.937 85.996 C 254.937 86.015 254.937 92.031 254.937 92.031 C 254.937 92.411 255.41 92.51 255.698 92.51 C 255.98 92.51 256.459 92.402 256.459 92.031 C 256.459 91.992 256.459 88.191 256.459 88.191 L 257.386 89.926 C 257.584 90.318 258.16 90.295 258.371 89.926 C 258.378 89.915 259.308 88.29 259.308 88.29 L 259.308 92.031 C 259.308 92.404 259.798 92.51 260.068 92.51 C 260.353 92.51 260.829 92.408 260.829 92.031 C 260.829 91.986 260.829 85.996 260.829 85.996 C 260.829 85.54 260.523 85.218 260.068 85.218 Z" style="fill: rgba(162, 222, 208, 0.11);"/>
  <path d="M 264.955 85.158 C 264.6 85.158 264.08 85.276 263.96 85.677 C 263.949 85.714 262.132 91.836 262.131 91.872 C 262.126 92.303 262.752 92.51 263.102 92.51 C 263.382 92.51 263.547 92.414 263.6 92.22 L 263.931 90.974 L 265.99 90.974 L 266.321 92.22 C 266.373 92.414 266.539 92.51 266.819 92.51 C 267.156 92.51 267.795 92.306 267.794 91.871 C 267.794 91.851 265.95 85.677 265.95 85.677 C 265.825 85.276 265.316 85.158 264.955 85.158 Z M 264.243 89.777 L 264.955 87.103 L 265.667 89.777 L 264.243 89.777 Z" style="fill: rgba(162, 222, 208, 0.11);"/>
  <path d="M 250.187 98.961 C 249.589 98.961 249.103 99.459 249.103 100.07 C 249.103 100.68 249.589 101.178 250.187 101.178 C 250.784 101.178 251.271 100.68 251.271 100.07 C 251.271 99.459 250.784 98.961 250.187 98.961 Z" style="fill: rgba(162, 222, 208, 0.11);"/>
  <path d="M 236.531 105.833 L 227.86 105.833 C 227.262 105.833 226.776 106.329 226.776 106.941 L 226.776 115.808 C 226.776 116.42 227.262 116.916 227.86 116.916 L 236.531 116.916 C 237.129 116.916 237.615 116.42 237.615 115.808 L 237.615 106.941 C 237.615 106.329 237.129 105.833 236.531 105.833 Z M 235.447 108.05 L 235.447 110.266 L 228.944 110.266 L 228.944 108.05 L 235.447 108.05 Z M 228.944 114.7 L 228.944 112.483 L 235.447 112.483 L 235.447 114.7 L 228.944 114.7 Z" style="fill: rgba(162, 222, 208, 0.11);"/>
  <path d="M 272.514 105.833 L 263.844 105.833 C 263.245 105.833 262.76 106.329 262.76 106.941 L 262.76 115.808 C 262.76 116.42 263.245 116.916 263.844 116.916 L 272.514 116.916 C 273.113 116.916 273.598 116.42 273.598 115.808 L 273.598 106.941 C 273.598 106.329 273.113 105.833 272.514 105.833 Z M 271.43 108.05 L 271.43 110.266 L 264.927 110.266 L 264.927 108.05 L 271.43 108.05 Z M 264.927 114.7 L 264.927 112.483 L 271.43 112.483 L 271.43 114.7 L 264.927 114.7 Z" style="fill: rgba(162, 222, 208, 0.11);"/>
  <g transform="matrix(0.108384, 0, 0, 0.110834, 222.441055, 65.710686)" style=""/>
  <g transform="matrix(0.108384, 0, 0, 0.110834, 222.441055, 65.710686)" style=""/>
  <g transform="matrix(0.108384, 0, 0, 0.110834, 222.441055, 65.710686)" style=""/>
  <g transform="matrix(0.108384, 0, 0, 0.110834, 222.441055, 65.710686)" style=""/>
  <g transform="matrix(0.108384, 0, 0, 0.110834, 222.441055, 65.710686)" style=""/>
  <g transform="matrix(0.108384, 0, 0, 0.110834, 222.441055, 65.710686)" style=""/>
  <g transform="matrix(0.108384, 0, 0, 0.110834, 222.441055, 65.710686)" style=""/>
  <g transform="matrix(0.108384, 0, 0, 0.110834, 222.441055, 65.710686)" style=""/>
  <g transform="matrix(0.108384, 0, 0, 0.110834, 222.441055, 65.710686)" style=""/>
  <g transform="matrix(0.108384, 0, 0, 0.110834, 222.441055, 65.710686)" style=""/>
  <g transform="matrix(0.108384, 0, 0, 0.110834, 222.441055, 65.710686)" style=""/>
  <g transform="matrix(0.108384, 0, 0, 0.110834, 222.441055, 65.710686)" style=""/>
  <g transform="matrix(0.108384, 0, 0, 0.110834, 222.441055, 65.710686)" style=""/>
  <g transform="matrix(0.108384, 0, 0, 0.110834, 222.441055, 65.710686)" style=""/>
  <g transform="matrix(0.108384, 0, 0, 0.110834, 222.441055, 65.710686)" style=""/>
  <path d="M 121.742 91.601 L 128.856 84.407 C 129.696 83.558 129.696 82.181 128.856 81.334 L 124.069 76.491 C 122.39 78.189 119.668 78.189 117.989 76.491 C 116.311 74.793 116.311 72.04 117.989 70.343 L 113.201 65.501 C 112.362 64.652 111.002 64.652 110.162 65.501 L 84.354 91.601 Z M 121.742 91.601" style="fill: rgba(162, 222, 208, 0.11);"/>
  <path d="M 85.312 98.473 L 108.414 75.108 L 119.356 86.175 L 96.254 109.539 Z M 85.312 98.473" style="fill: rgba(162, 222, 208, 0.11);"/>
  <path d="M 125.187 104.97 C 125.187 102.569 127.112 100.623 129.486 100.623 L 129.486 93.776 C 129.486 92.575 128.524 91.601 127.336 91.601 L 78.759 91.601 C 77.573 91.601 76.61 92.575 76.61 93.776 L 76.61 100.623 C 78.983 100.623 80.908 102.569 80.908 104.97 C 80.908 107.372 78.983 109.319 76.61 109.319 L 76.61 116.166 C 76.61 117.367 77.573 118.34 78.759 118.34 L 127.336 118.34 C 128.524 118.34 129.486 117.367 129.486 116.166 L 129.486 109.319 C 127.112 109.319 125.187 107.372 125.187 104.97 Z M 125.187 104.97" style="fill: rgba(162, 222, 208, 0.11);"/>
  <path d="M 86.712 97.145 L 119.383 97.145 L 119.383 112.797 L 86.712 112.797 Z M 86.712 97.145" style="fill: rgba(162, 222, 208, 0.11);"/>
  <path d="M 89.637 87.346 C 89.92 87.346 90.197 87.228 90.397 87.027 C 90.597 86.824 90.712 86.544 90.712 86.258 C 90.712 85.972 90.597 85.692 90.397 85.49 C 90.197 85.288 89.92 85.171 89.637 85.171 C 89.353 85.171 89.078 85.288 88.877 85.49 C 88.677 85.692 88.562 85.972 88.562 86.258 C 88.562 86.544 88.677 86.824 88.877 87.027 C 89.078 87.228 89.354 87.346 89.637 87.346 Z M 89.637 87.346" style="fill: rgba(162, 222, 208, 0.11);"/>
  <path d="M 105.033 85.906 C 104.832 85.704 104.556 85.587 104.272 85.587 C 103.989 85.587 103.711 85.704 103.512 85.906 C 103.312 86.108 103.197 86.389 103.197 86.675 C 103.197 86.961 103.312 87.241 103.512 87.443 C 103.711 87.645 103.989 87.762 104.272 87.762 C 104.556 87.762 104.832 87.645 105.033 87.443 C 105.233 87.241 105.347 86.962 105.347 86.675 C 105.347 86.389 105.233 86.108 105.033 85.906 Z M 105.033 85.906" style="fill: rgba(162, 222, 208, 0.11);"/>
  <path d="M 108.034 83.958 C 108.318 83.958 108.594 83.841 108.794 83.639 C 108.994 83.437 109.108 83.156 109.108 82.871 C 109.108 82.585 108.994 82.304 108.794 82.102 C 108.594 81.899 108.318 81.783 108.034 81.783 C 107.751 81.783 107.473 81.899 107.274 82.102 C 107.074 82.304 106.959 82.585 106.959 82.871 C 106.959 83.156 107.074 83.437 107.274 83.639 C 107.473 83.841 107.751 83.958 108.034 83.958 Z M 108.034 83.958" style="fill: rgba(162, 222, 208, 0.11);"/>
  <path d="M 127.336 90.515 L 124.337 90.515 L 129.617 85.176 C 130.225 84.56 130.56 83.741 130.56 82.871 C 130.56 82 130.225 81.18 129.617 80.564 L 124.828 75.723 C 124.409 75.298 123.729 75.298 123.309 75.723 C 122.7 76.339 121.891 76.678 121.029 76.678 C 120.168 76.678 119.358 76.339 118.749 75.723 C 118.14 75.107 117.805 74.287 117.805 73.417 C 117.805 72.546 118.14 71.728 118.749 71.111 C 118.951 70.907 119.064 70.631 119.064 70.343 C 119.064 70.055 118.951 69.778 118.749 69.574 L 113.961 64.732 C 113.353 64.117 112.543 63.777 111.682 63.777 C 110.82 63.777 110.011 64.117 109.401 64.732 L 91.651 82.684 C 91.232 83.108 91.232 83.796 91.651 84.221 C 92.071 84.645 92.753 84.645 93.172 84.221 L 110.922 66.269 C 111.125 66.064 111.394 65.95 111.682 65.95 C 111.969 65.95 112.238 66.064 112.442 66.269 L 116.545 70.419 C 115.966 71.301 115.656 72.334 115.656 73.417 C 115.656 74.869 116.214 76.233 117.23 77.26 C 118.245 78.287 119.594 78.851 121.029 78.851 C 122.1 78.851 123.121 78.538 123.993 77.951 L 128.096 82.102 C 128.515 82.526 128.515 83.215 128.096 83.639 L 121.298 90.515 L 116.586 90.515 L 120.118 86.943 C 120.537 86.52 120.537 85.831 120.118 85.407 L 109.174 74.339 C 108.754 73.915 108.074 73.915 107.654 74.339 L 91.66 90.515 L 78.759 90.515 C 76.982 90.515 75.535 91.977 75.535 93.776 L 75.535 100.623 C 75.535 101.223 76.017 101.71 76.61 101.71 C 78.388 101.71 79.834 103.172 79.834 104.97 C 79.834 106.768 78.388 108.232 76.61 108.232 C 76.017 108.232 75.535 108.718 75.535 109.319 L 75.535 116.166 C 75.535 117.963 76.982 119.427 78.759 119.427 L 127.336 119.427 C 129.114 119.427 130.56 117.963 130.56 116.166 L 130.56 109.319 C 130.56 108.718 130.08 108.232 129.486 108.232 C 127.708 108.232 126.261 106.768 126.261 104.97 C 126.261 103.172 127.708 101.71 129.486 101.71 C 130.08 101.71 130.56 101.223 130.56 100.623 L 130.56 93.776 C 130.56 91.977 129.114 90.515 127.336 90.515 Z M 108.414 76.645 L 117.837 86.175 L 113.547 90.515 L 109.291 90.515 L 112.442 87.329 C 112.861 86.904 112.861 86.215 112.442 85.791 C 112.022 85.366 111.342 85.366 110.922 85.791 L 106.251 90.514 L 94.7 90.514 Z M 128.411 99.645 C 125.962 100.15 124.112 102.346 124.112 104.97 C 124.112 107.595 125.962 109.792 128.411 110.296 L 128.411 116.166 C 128.411 116.765 127.929 117.253 127.336 117.253 L 78.759 117.253 C 78.167 117.253 77.684 116.765 77.684 116.166 L 77.684 110.296 C 80.134 109.792 81.983 107.595 81.983 104.97 C 81.983 102.346 80.134 100.151 77.684 99.645 L 77.684 93.776 C 77.684 93.176 78.167 92.688 78.759 92.688 L 127.336 92.688 C 127.929 92.688 128.411 93.176 128.411 93.776 Z M 128.411 99.645" style="fill: rgba(162, 222, 208, 0.11);"/>
  <path d="M 98.488 103.131 C 98.687 102.928 98.802 102.648 98.802 102.362 C 98.802 102.076 98.687 101.796 98.488 101.594 C 98.288 101.392 98.01 101.276 97.727 101.276 C 97.446 101.276 97.168 101.392 96.968 101.594 C 96.769 101.796 96.653 102.076 96.653 102.362 C 96.653 102.648 96.769 102.928 96.968 103.131 C 97.168 103.333 97.446 103.449 97.727 103.449 C 98.01 103.449 98.288 103.333 98.488 103.131 Z M 98.488 103.131" style="fill: rgba(162, 222, 208, 0.11);"/>
  <path d="M 109.128 103.131 C 109.328 102.928 109.442 102.648 109.442 102.362 C 109.442 102.076 109.328 101.796 109.128 101.594 C 108.928 101.392 108.651 101.276 108.368 101.276 C 108.085 101.276 107.808 101.392 107.608 101.594 C 107.408 101.796 107.293 102.076 107.293 102.362 C 107.293 102.648 107.408 102.928 107.608 103.131 C 107.808 103.333 108.085 103.449 108.368 103.449 C 108.651 103.449 108.928 103.333 109.128 103.131 Z M 109.128 103.131" style="fill: rgba(162, 222, 208, 0.11);"/>
  <path d="M 103.808 103.131 C 104.008 102.928 104.122 102.648 104.122 102.362 C 104.122 102.076 104.008 101.796 103.808 101.594 C 103.608 101.392 103.33 101.276 103.048 101.276 C 102.766 101.276 102.488 101.392 102.288 101.594 C 102.089 101.796 101.973 102.076 101.973 102.362 C 101.973 102.648 102.089 102.928 102.288 103.131 C 102.488 103.333 102.766 103.449 103.048 103.449 C 103.33 103.449 103.608 103.333 103.808 103.131 Z M 103.808 103.131" style="fill: rgba(162, 222, 208, 0.11);"/>
  <path d="M 92.408 103.449 C 92.691 103.449 92.968 103.333 93.167 103.131 C 93.368 102.928 93.483 102.648 93.483 102.362 C 93.483 102.076 93.368 101.796 93.167 101.594 C 92.968 101.392 92.691 101.276 92.408 101.276 C 92.126 101.276 91.848 101.392 91.648 101.594 C 91.448 101.796 91.334 102.076 91.334 102.362 C 91.334 102.648 91.448 102.928 91.648 103.131 C 91.848 103.333 92.126 103.449 92.408 103.449 Z M 92.408 103.449" style="fill: rgba(162, 222, 208, 0.11);"/>
  <path d="M 114.448 103.131 C 114.648 102.928 114.763 102.648 114.763 102.362 C 114.763 102.076 114.648 101.796 114.448 101.594 C 114.248 101.392 113.97 101.276 113.688 101.276 C 113.405 101.276 113.128 101.392 112.928 101.594 C 112.728 101.796 112.613 102.076 112.613 102.362 C 112.613 102.648 112.728 102.928 112.928 103.131 C 113.128 103.333 113.405 103.449 113.688 103.449 C 113.97 103.449 114.248 103.333 114.448 103.131 Z M 114.448 103.131" style="fill: rgba(162, 222, 208, 0.11);"/>
  <path d="M 92.408 108.666 L 113.688 108.666 C 114.281 108.666 114.763 108.179 114.763 107.58 C 114.763 106.979 114.281 106.493 113.688 106.493 L 92.408 106.493 C 91.815 106.493 91.334 106.979 91.334 107.58 C 91.334 108.179 91.815 108.666 92.408 108.666 Z M 92.408 108.666" style="fill: rgba(162, 222, 208, 0.11);"/>
  <path d="M 96.312 111.71 C 96.029 111.71 95.751 111.826 95.551 112.029 C 95.352 112.23 95.237 112.511 95.237 112.797 C 95.237 113.083 95.352 113.363 95.551 113.566 C 95.751 113.767 96.029 113.884 96.312 113.884 C 96.595 113.884 96.872 113.767 97.071 113.566 C 97.273 113.363 97.386 113.083 97.386 112.797 C 97.386 112.511 97.273 112.23 97.071 112.029 C 96.872 111.826 96.595 111.71 96.312 111.71 Z M 96.312 111.71" style="fill: rgba(162, 222, 208, 0.11);"/>
  <path d="M 119.383 96.058 L 86.712 96.058 C 86.118 96.058 85.637 96.544 85.637 97.145 L 85.637 112.797 C 85.637 113.397 86.118 113.884 86.712 113.884 L 91.189 113.884 C 91.782 113.884 92.264 113.397 92.264 112.797 C 92.264 112.197 91.782 111.71 91.189 111.71 L 87.787 111.71 L 87.787 98.232 L 118.309 98.232 L 118.309 111.71 L 100.861 111.71 C 100.267 111.71 99.787 112.197 99.787 112.797 C 99.787 113.397 100.267 113.884 100.861 113.884 L 119.383 113.884 C 119.977 113.884 120.458 113.397 120.458 112.797 L 120.458 97.145 C 120.458 96.544 119.977 96.058 119.383 96.058 Z M 119.383 96.058" style="fill: rgba(162, 222, 208, 0.11);"/>
  <g fill-rule="evenodd" transform="matrix(0.125022, 0, 0, 0.116639, 379.998627, 63.107018)" style="">
    <path d="m168.660156 10c57.992188 0 105.441406 47.449219 105.441406 105.441406v147.054688c0 57.992187-47.449218 105.441406-105.441406 105.441406-57.992187 0-105.441406-47.449219-105.441406-105.441406v-147.054688c0-57.992187 47.449219-105.441406 105.441406-105.441406zm0 0" style="fill: rgba(162, 222, 208, 0.11);"/>
    <path d="m326.824219 178.96875h-42.722657v-63.527344c0-23.390625-7.035156-45.957031-20.34375-65.257812-12.980468-18.824219-30.988281-33.285156-52.078124-41.820313-5.117188-2.070312-10.949219.398438-13.019532 5.519531-2.074218 5.117188.398438 10.949219 5.519532 13.019532 36.398437 14.730468 59.921874 49.480468 59.921874 88.535156v1.207031h-29.757812c-5.523438 0-10 4.476563-10 10 0 5.523438 4.476562 10 10 10h29.757812v42.324219h-29.757812c-5.523438 0-10 4.476562-10 10 0 5.519531 4.476562 10 10 10h29.757812v42.320312h-29.757812c-5.523438 0-10 4.480469-10 10 0 5.523438 4.476562 10 10 10h29.757812v1.207032c0 39.054687-23.519531 73.804687-59.921874 88.535156-5.121094 2.070312-7.59375 7.902344-5.519532 13.019531 1.574219 3.894531 5.316406 6.253907 9.273438 6.253907 1.246094 0 2.519531-.234376 3.746094-.734376 21.089843-8.53125 39.097656-22.992187 52.078124-41.816406 13.308594-19.300781 20.34375-41.867187 20.34375-65.257812v-63.527344h32.71875v63.527344c0 81.695312-66.464843 148.160156-148.160156 148.160156-81.695312 0-148.160156-66.464844-148.160156-148.160156v-63.527344h32.71875v63.527344c0 23.390625 7.035156 45.957031 20.347656 65.257812 12.976563 18.824219 30.984375 33.285156 52.074219 41.820313 1.230469.496093 2.5.730469 3.75.730469 3.949219 0 7.695313-2.359376 9.269531-6.25 2.074219-5.121094-.398437-10.949219-5.515625-13.019532-36.402343-14.730468-59.925781-49.484375-59.925781-88.539062v-1.203125h29.757812c5.523438 0 10-4.476563 10-10 0-5.523438-4.476562-10-10-10h-29.757812v-42.324219h29.757812c5.523438 0 10-4.476562 10-10s-4.476562-10-10-10h-29.757812v-42.324219h29.757812c5.523438 0 10-4.476562 10-10 0-5.519531-4.476562-10-10-10h-29.757812v-1.203125c0-39.054687 23.523438-73.808594 59.925781-88.539062 5.117188-2.070313 7.589844-7.898438 5.515625-13.019532-2.070312-5.121093-7.902344-7.589843-13.019531-5.519531-21.089844 8.535157-39.097656 22.996094-52.078125 41.820313-13.308594 19.300781-20.34375 41.867187-20.34375 65.257812v63.527344h-42.71875c-5.523438 0-10 4.480469-10 10v73.527344c0 44.742187 17.539062 86.925781 49.386719 118.773437 29.46875 29.464844 67.773437 46.667969 108.773437 49.082031v61.648438h-61.859375c-5.519531 0-10 4.476562-10 10s4.480469 10 10 10h143.722657c5.519531 0 10-4.476562 10-10s-4.480469-10-10-10h-61.863282v-61.648438c41-2.414062 79.308594-19.617187 108.773438-49.082031 31.847656-31.851562 49.390625-74.03125 49.390625-118.773437v-73.527344c0-5.523438-4.480469-10-10-10zm0 0" style="fill: rgba(162, 222, 208, 0.11);"/>
    <path d="m168.660156 20c5.507813 0 10-4.492188 10-10s-4.492187-10-10-10c-5.507812 0-10 4.492188-10 10s4.492188 10 10 10zm0 0" style="fill: rgba(162, 222, 208, 0.11);"/>
    <path d="m168.660156 377.9375c5.507813 0 10-4.492188 10-10s-4.492187-10-10-10c-5.507812 0-10 4.492188-10 10s4.492188 10 10 10zm0 0" style="fill: rgba(162, 222, 208, 0.11);"/>
  </g>
</svg>