<?xml version="1.0" encoding="utf-8"?>
<svg viewBox="0 0 500 500" xmlns="http://www.w3.org/2000/svg">
  <rect x="310.863" y="314.679" transform="matrix(0.707084, -0.707129, 0.707085, 0.707129, -141.16301, 340.893494)" style="stroke: rgb(0, 0, 0); stroke-width: 1.8px;" width="60.063" height="52.328"/>
  <path d="M 193.361 339.826 C 274.137 339.826 339.852 274.105 339.852 193.324 C 339.852 112.544 274.137 46.822 193.361 46.822 C 112.584 46.822 46.867 112.543 46.867 193.323 C 46.867 274.104 112.584 339.826 193.361 339.826 Z M 193.361 66.356 C 263.365 66.356 320.32 123.312 320.32 193.323 C 320.32 263.334 263.365 320.292 193.361 320.292 C 123.355 320.292 66.4 263.334 66.4 193.323 C 66.4 123.312 123.355 66.356 193.361 66.356 Z" style="stroke: rgb(0, 0, 0); stroke-width: 1.8px;"/>
  <path d="M 70.438 316.254 C 66.625 312.441 60.44 312.441 56.626 316.254 C 52.812 320.068 52.812 326.253 56.626 330.068 L 57.532 330.968 C 59.435 332.849 61.917 333.789 64.396 333.789 C 66.916 333.789 69.432 332.821 71.341 330.888 C 75.134 327.052 75.098 320.866 71.261 317.074 L 70.438 316.254 Z" style="stroke: rgb(0, 0, 0); stroke-width: 1.8px;"/>
  <path d="M 488.362 432.061 L 355.315 299.007 C 404.246 224.051 395.844 122.337 330.094 56.581 C 254.7 -18.817 132.022 -18.817 56.627 56.581 C 25.337 87.874 5.593 129.304 1.029 173.238 C -3.466 216.538 6.855 260.497 30.094 297.018 C 32.989 301.57 39.026 302.909 43.577 300.013 C 48.126 297.118 49.468 291.081 46.572 286.53 C 3.251 218.447 13.288 127.546 70.438 70.393 C 138.218 2.609 248.504 2.609 316.282 70.393 C 384.062 138.176 384.062 248.468 316.282 316.252 C 257.814 374.725 165.558 383.876 96.921 338.008 C 92.438 335.012 86.372 336.218 83.376 340.702 C 80.381 345.187 81.586 351.253 86.07 354.25 C 118.624 376.004 155.943 386.634 193.099 386.634 C 230.22 386.634 267.169 376.007 299.011 355.265 L 331.24 387.495 C 331.241 387.496 331.243 387.498 331.244 387.499 C 331.244 387.5 331.247 387.501 331.248 387.503 L 432.081 488.343 C 439.598 495.859 449.592 500 460.221 500 C 470.85 500 480.843 495.861 488.362 488.342 C 503.879 472.825 503.879 447.578 488.362 432.061 Z M 330.095 330.067 C 334.932 325.227 339.456 320.19 343.674 314.987 L 366.817 338.131 C 366.76 338.186 366.699 338.234 366.642 338.29 L 338.152 366.782 L 315.007 343.638 C 320.224 339.417 325.266 334.896 330.095 330.067 Z M 474.552 474.531 C 470.725 478.36 465.634 480.467 460.222 480.467 C 454.811 480.467 449.721 478.36 445.893 474.532 L 351.962 380.597 L 380.453 352.105 C 380.509 352.048 380.557 351.986 380.612 351.929 L 474.552 445.875 C 482.452 453.774 482.452 466.63 474.552 474.531 Z" style="stroke: rgb(0, 0, 0); stroke-width: 1.8px;"/>
  <path d="M 223.571 120.185 C 253.275 132.47 272.467 161.178 272.467 193.324 C 272.467 198.717 276.839 203.091 282.233 203.091 C 287.628 203.091 292 198.718 292 193.324 C 292 153.246 268.071 117.451 231.036 102.134 C 226.051 100.074 220.34 102.442 218.278 107.426 C 216.217 112.412 218.586 118.122 223.571 120.185 Z" style="stroke: rgb(0, 0, 0); stroke-width: 1.8px;"/>
  <path d="M 193.361 114.212 C 193.723 114.212 194.085 114.215 194.448 114.22 C 194.494 114.221 194.54 114.221 194.587 114.221 C 199.916 114.221 204.274 109.939 204.35 104.592 C 204.425 99.199 200.115 94.763 194.72 94.689 C 194.267 94.681 193.815 94.678 193.359 94.678 C 187.966 94.678 183.593 99.052 183.593 104.445 C 183.593 109.839 187.967 114.212 193.361 114.212 Z" style="stroke: rgb(0, 0, 0); stroke-width: 1.8px;"/>
  <g transform="matrix(0.976563, 0, 0, 0.976625, 0.000211, 0)" style=""/>
  <g transform="matrix(0.976563, 0, 0, 0.976625, 0.000211, 0)" style=""/>
  <g transform="matrix(0.976563, 0, 0, 0.976625, 0.000211, 0)" style=""/>
  <g transform="matrix(0.976563, 0, 0, 0.976625, 0.000211, 0)" style=""/>
  <g transform="matrix(0.976563, 0, 0, 0.976625, 0.000211, 0)" style=""/>
  <g transform="matrix(0.976563, 0, 0, 0.976625, 0.000211, 0)" style=""/>
  <g transform="matrix(0.976563, 0, 0, 0.976625, 0.000211, 0)" style=""/>
  <g transform="matrix(0.976563, 0, 0, 0.976625, 0.000211, 0)" style=""/>
  <g transform="matrix(0.976563, 0, 0, 0.976625, 0.000211, 0)" style=""/>
  <g transform="matrix(0.976563, 0, 0, 0.976625, 0.000211, 0)" style=""/>
  <g transform="matrix(0.976563, 0, 0, 0.976625, 0.000211, 0)" style=""/>
  <g transform="matrix(0.976563, 0, 0, 0.976625, 0.000211, 0)" style=""/>
  <g transform="matrix(0.976563, 0, 0, 0.976625, 0.000211, 0)" style=""/>
  <g transform="matrix(0.976563, 0, 0, 0.976625, 0.000211, 0)" style=""/>
  <g transform="matrix(0.976563, 0, 0, 0.976625, 0.000211, 0)" style=""/>
</svg>