<?xml version="1.0" encoding="UTF-8" standalone="no"?>
<!-- Created with Inkscape (http://www.inkscape.org/) -->

<svg
   width="2560"
   height="600"
   viewBox="0 0 677.33332 158.75"
   version="1.1"
   id="svg1047"
   inkscape:version="1.1.2 (b8e25be8, 2022-02-05)"
   sodipodi:docname="hero-backgound.svg"
   xmlns:inkscape="http://www.inkscape.org/namespaces/inkscape"
   xmlns:sodipodi="http://sodipodi.sourceforge.net/DTD/sodipodi-0.dtd"
   xmlns="http://www.w3.org/2000/svg"
   xmlns:svg="http://www.w3.org/2000/svg">
  <sodipodi:namedview
     id="namedview1049"
     pagecolor="#505050"
     bordercolor="#ffffff"
     borderopacity="1"
     inkscape:pageshadow="0"
     inkscape:pageopacity="0"
     inkscape:pagecheckerboard="1"
     inkscape:document-units="mm"
     showgrid="false"
     units="px"
     inkscape:zoom="0.32264704"
     inkscape:cx="1098.7239"
     inkscape:cy="271.19418"
     inkscape:window-width="1920"
     inkscape:window-height="1027"
     inkscape:window-x="0"
     inkscape:window-y="25"
     inkscape:window-maximized="0"
     inkscape:current-layer="layer2" />
  <defs
     id="defs1044">
    <style
       id="style1237">.cls-1{fill:#ffde17;}.cls-2{fill:#f26522;}.cls-3{fill:#fbb040;}.cls-14,.cls-19,.cls-4,.cls-5,.cls-6,.cls-8{fill:none;}.cls-4,.cls-5,.cls-6{stroke:#9b8579;}.cls-4,.cls-5,.cls-6,.cls-8{stroke-linecap:round;}.cls-14,.cls-4,.cls-5,.cls-6,.cls-8{stroke-miterlimit:10;}.cls-4{stroke-width:0.78px;}.cls-5{stroke-width:1.57px;}.cls-6{stroke-width:2.35px;}.cls-7{fill:#c45219;}.cls-14,.cls-8{stroke:#45622d;stroke-width:2.46px;}.cls-9{fill:#a4846d;}.cls-10{fill:#735e4f;}.cls-11{fill:#7f6554;}.cls-12{fill:#8f7360;}.cls-13{fill:#825d33;}.cls-15{fill:#9d9e9f;}.cls-16{fill:#90745f;}.cls-17{fill:#d0b18a;}.cls-18{fill:#232221;}</style>
  </defs>
  <g
     inkscape:label="Calque 1"
     inkscape:groupmode="layer"
     id="layer1" />
  <g
     inkscape:groupmode="layer"
     id="layer2"
     inkscape:label="Clouds">
    <path
       fill="#b2d9fd"
       d="m 133.62947,171.77353 c 1.54423,0.4705 2.97286,1.27704 4.2611,2.31881 a 30.438778,41.290236 0 0 1 38.6967,-14.12557 c 4.50886,-2.00518 9.16634,-7.53891 14.13762,-6.04904 3.19583,0.96335 9.24888,-32.25032 37.12772,-15.46986 0.0828,-0.87373 15.30194,-19.67053 39.43993,-5.60096 4.34366,-13.10622 15.91306,-10.86587 18.48126,-5.69057 0.56155,-2.25157 6.1274,-7.06841 10.93351,-5.06328 5.34291,2.22919 7.57253,7.23645 8.48918,14.78654 a 13.24574,17.967861 0 0 1 14.36882,17.03813 20.611826,27.959965 0 0 1 38.80408,17.87824 20.496215,27.803139 0 0 1 -5.18599,13.18463 25.277565,34.289043 0 0 1 25.09589,-11.96365 24.996795,33.908178 0 0 1 17.7876,20.40989 14.154115,19.200072 0 0 1 9.24889,1.05298 l -321.25876,0.25784 c -1.288237,-4.81682 45.46824,-24.19611 49.57245,-22.96392 z"
       id="path2"
       style="stroke-width:0.961795" />
    <path
       fill="#c4e0fc"
       d="m 600.71522,138.16781 c -1.54419,0.47049 -2.97285,1.27704 -4.25281,2.3188 a 30.438778,41.290236 0 0 0 -38.69674,-14.12557 27.333792,37.078319 0 0 0 -14.44314,-0.95219 27.399856,37.167934 0 0 0 -8.76168,4.90642 16.185569,21.955741 0 0 0 -13.81553,-16.61244 15.690092,21.283626 0 0 0 -14.61656,-15.301772 21.107304,28.632079 0 0 0 -25.50054,-24.38655 21.024723,28.520061 0 0 0 -13.66688,13.59911 12.263046,16.634834 0 0 0 -19.36489,0.44806 14.236694,19.31209 0 0 0 -18.44824,15.212172 13.24574,17.967861 0 0 0 -14.36882,17.03815 20.611826,27.959965 0 0 0 -38.79583,17.87824 20.496215,27.803139 0 0 0 5.17775,13.18463 25.277565,34.289043 0 0 0 -25.09591,-11.96365 24.996795,33.908178 0 0 0 -17.78758,20.40989 14.154115,19.200072 0 0 0 -9.24066,1.05299 l 321.25053,0.25785 c 1.28821,-4.81683 -45.45996,-24.19613 -49.57247,-22.96394 z M 335.8665,211.19306 a 11.627184,15.772288 0 0 0 -11.45379,-13.44229 11.395961,15.458634 0 0 0 -7.4982,3.83108 5.3346313,7.2364332 0 0 0 -6.52377,-3.36058 9.1498011,12.411716 0 0 0 -10.77661,-6.08264 16.02041,21.731703 0 0 0 -22.21385,-24.46498 6.8540927,9.2975848 0 0 0 -11.79235,-2.48683 21.280719,28.86732 0 0 0 -14.46792,-7.6285 21.305494,28.900925 0 0 0 -15.06249,8.46865 9.0837373,12.3221 0 0 0 0.56979,-4.30153 c -0.009,-6.85557 -3.59221,-11.13471 -7.94414,-12.07567 -6.243,-1.35541 -9.00115,2.68846 -9.52142,2.82288 -0.41289,-10.05932 -9.51315,-14.26 -15.3515,-8.71509 -7.83681,-9.70085 -27.42466,-11.4035 -36.04594,-5.54491 -8.62131,5.85859 -9.24891,8.55823 -9.45532,8.25581 -2.27096,-7.03483 -9.01767,-11.45957 -14.62486,-9.40961 a 11.395961,15.458634 0 0 0 -6.52374,6.31788 5.3346313,7.2364332 0 0 0 -6.93667,-0.9634 c -2.22966,-3.27094 -8.17538,-4.76078 -12.56037,-3.05811 -4.39321,1.69148 -7.96064,5.43292 -8.91857,13.10626 -6.29253,-3.21498 -17.407724,-2.92374 -22.544175,9.18554 -0.03304,0.0784 -8.018479,-6.27307 -16.80491,0.64971 -30.422256,23.94968 -61.0592241,76.341 -59.407656,75.94895 2.766433,2.30759 6.193476,3.13652 9.579231,1.90432 107.85699,9.18556 162.95399,13.76715 165.29098,13.76715 101.19285,-28.49765 151.525,-42.73527 150.98825,-42.73527 z"
       id="path4"
       style="stroke-width:0.961795" />
    <g
       fill="#d7eafc"
       id="g10"
       transform="matrix(0.82579433,0,0,1.1201909,4.7229664,73.084718)">
      <path
         d="m 393,114.28 c 1.04,-6.78 6.85,-12 13.88,-12 3.48,0.02 6.65,1.3 9.08,3.42 a 6.46,6.46 0 0 1 7.9,-3 11.08,11.08 0 0 1 13.04,-5.43 19.46,19.46 0 0 1 -0.45,-4.17 19.4,19.4 0 0 1 27.36,-17.66 8.3,8.3 0 0 1 14.28,-2.23 25.77,25.77 0 0 1 17.52,-6.81 25.8,25.8 0 0 1 18.24,7.56 11.08,11.08 0 0 1 12.37,-14.72 17.47,17.47 0 0 1 8.2,-2.02 c 0.93,-6.37 5.9,-11.56 12.17,-11.95 a 31.4,31.4 0 0 1 59.82,10.49 c 0.92,-0.01 1.86,0.09 2.8,0.34 a 14.08,14.08 0 0 1 16.5,-8 c 3.35,0.9 6.09,2.96 7.89,5.64 2.24,-1.1 10.75,-1.07 16.42,3.42 5.66,4.5 12.63,14.65 11.52,25.63 5.56,-2.9 -81.46,69.64 -85.7,69.64 C 453.31,126.99 392.36,114.28 393.01,114.28 Z"
         id="path6" />
      <path
         d="m 952.84,75.28 a 16.04,16.04 0 0 0 -17.65,-1.02 34.43,34.43 0 0 0 -43.55,-12.55 30.92,30.92 0 0 0 -16.3,-1.07 31,31 0 0 0 -10,3.91 18.3,18.3 0 0 0 -15.37,-14.12 17.75,17.75 0 0 0 -16.3,-13.05 23.87,23.87 0 0 0 -28.48,-20.83 23.78,23.78 0 0 0 -15.66,11.07 13.87,13.87 0 0 0 -21.9,0 16.1,16.1 0 0 0 -21.08,12.32 14.98,14.98 0 0 0 -16.5,13.92 23.31,23.31 0 0 0 -44.13,14.13 c 0.87,4.3 2.9,8.07 5.67,11.09 a 28.59,28.59 0 0 0 -28.2,-10.47 28.27,28.27 0 0 0 -20.42,16.67 16,16 0 0 0 -10.47,0.7 l 336.65,6.54 C 970.68,88.53 960.76,79 952.85,75.28 Z m -844,0 A 16.04,16.04 0 0 0 91.19,74.26 34.43,34.43 0 0 0 47.64,61.7 30.92,30.92 0 0 0 31.34,60.63 31,31 0 0 0 21.34,64.54 18.3,18.3 0 0 0 5.98,50.43 17.75,17.75 0 0 0 -10.32,37.38 23.87,23.87 0 0 0 -38.8,16.55 a 23.78,23.78 0 0 0 -15.66,11.07 13.87,13.87 0 0 0 -21.9,0 16.1,16.1 0 0 0 -21.08,12.32 14.98,14.98 0 0 0 -16.5,13.92 23.31,23.31 0 0 0 -44.13,14.13 c 0.87,4.3 2.9,8.07 5.67,11.09 a 28.59,28.59 0 0 0 -28.2,-10.47 28.27,28.27 0 0 0 -20.42,16.67 16,16 0 0 0 -10.47,0.7 l 336.65,6.54 C 126.69,88.53 116.77,79 108.86,75.28 Z"
         id="path8" />
    </g>
    <g
       id="Layer_1"
       data-name="Layer 1"
       transform="matrix(0.5829965,0,0,0.62925007,39.013667,47.783793)">
      <path
         class="cls-1"
         d="M 183.61,45.69 45.35,92.3 c 0,0 34.46,46.22 86.56,72.85 L 115.46,106 168.73,57 182.44,52.3 Z"
         transform="translate(-43.35,-43.99)"
         id="path1243" />
      <polygon
         class="cls-2"
         points="71.33,86.82 65.32,61.49 98.22,26.24 32.97,54.45 "
         id="polygon1245" />
      <path
         class="cls-3"
         d="m 122.35,160 q 4.68,2.7 9.56,5.2 l -16.45,-59.2 53.27,-49 13.71,-4.7 1.17,-6.66 -22.22,7.49 -58.73,49.17 z"
         transform="translate(-43.35,-43.99)"
         id="path1247" />
      <line
         class="cls-4"
         x1="125.97"
         y1="13.01"
         x2="115.4"
         y2="10.57"
         id="line1249" />
      <line
         class="cls-4"
         x1="114.15"
         y1="23.370001"
         x2="88.040001"
         y2="19.450001"
         id="line1251" />
      <line
         class="cls-4"
         x1="101.1"
         y1="35.380001"
         x2="58.27"
         y2="28.85"
         id="line1253" />
      <line
         class="cls-4"
         x1="87.089996"
         y1="48.700001"
         x2="30.59"
         y2="38.52"
         id="line1255" />
      <line
         class="cls-4"
         x1="76.739998"
         y1="77.760002"
         x2="18.49"
         y2="66.339996"
         id="line1257" />
      <line
         class="cls-4"
         x1="81.25"
         y1="94.129997"
         x2="36.599998"
         y2="85.519997"
         id="line1259" />
      <line
         class="cls-5"
         x1="2.9100001"
         y1="48.700001"
         x2="111.28"
         y2="86.300003"
         id="line1261" />
      <line
         class="cls-4"
         x1="72.110001"
         y1="62.02"
         x2="2"
         y2="48.310001"
         id="line1263" />
      <path
         class="cls-6"
         d="M 184.66,45.17 45.35,92.3 c 0,0 40.65,48.7 86.56,72.85"
         transform="translate(-43.35,-43.99)"
         id="path1265" />
      <polygon
         class="cls-7"
         points="49.15,57.01 53.49,67.17 92.95,80.76 72.44,61.59 "
         id="polygon1267" />
      <line
         class="cls-8"
         x1="71.839996"
         y1="102.7"
         x2="47.400002"
         y2="41.950001"
         id="line1269" />
      <line
         class="cls-8"
         x1="34.650002"
         y1="70.010002"
         x2="40.400002"
         y2="87.260002"
         id="line1271" />
      <path
         class="cls-9"
         d="m 89.24,144 c 0,0 4,-2.86 5.65,-6.68 1.65,-3.82 6.17,-0.35 6.17,-0.35 0,0 -0.53,8.68 -5,11.89 l -6.19,-1.7 z"
         transform="translate(-43.35,-43.99)"
         id="path1273" />
      <path
         class="cls-10"
         d="m 108.77,135.28 c 0,0 2.25,-3.24 4.53,-4.13 0,0 -1.4,1.92 -0.9,2.15 0.5,0.23 1.29,-1.82 5.73,-2.19 0,0 -1.73,1.07 -1.47,1.44 0.26,0.37 1,-0.78 3.4,-0.64 a 4.52,4.52 0 0 0 4.43,-3.13 7.12,7.12 0 0 1 -2.43,8 c -0.74,0.62 -0.17,0.51 0.91,0.08 0,0 -2.42,2.68 -7.81,3 a 5.94,5.94 0 0 1 -6.39,-4.59"
         transform="translate(-43.35,-43.99)"
         id="path1275" />
      <polygon
         class="cls-11"
         points="70.75,93.83 71.85,94.35 71.85,95.76 72.37,95.77 73.73,95.56 72.81,94.92 73.06,93.7 71.44,92.91 70.82,90.81 70,91.61 68.91,90.94 68.84,89.94 67.98,88.72 67.17,89.34 67.92,90.39 67.76,91.5 69.15,92.31 69.79,93.8 70.42,92.55 "
         id="polygon1277" />
      <path
         class="cls-11"
         d="m 114.42,132.18 1.92,2.14 a 14.43,14.43 0 0 0 0.61,2.51 l 0.44,-0.76 0.42,1.29 0.83,0.14 -0.1,1.74 1.29,-2.49 -1.37,-0.8 -0.58,-1.94 -0.78,0.76 v -2.07 l -0.79,0.36 -0.51,-1.39 z"
         transform="translate(-43.35,-43.99)"
         id="path1279" />
      <path
         class="cls-12"
         d="m 95.88,145.6 c 0,0 3,3 9.77,3.55 2.67,0.22 5.7,0.11 6.51,0.4 0.81,0.29 1.1,2.27 1.56,3.26 0.46,0.99 2.2,2.11 3.45,0.94 1.25,-1.17 2.28,-5.08 2.28,-5.08 0,0 2.36,1.35 3.59,0.5 3.56,-2.46 2.41,-8.7 1,-9.93 -1.41,-1.23 -2.78,-0.33 -3.61,-0.82 -7.17,-4.22 -12.13,-7 -12.13,-7 l -5.37,0.73 z"
         transform="translate(-43.35,-43.99)"
         id="path1281" />
      <path
         class="cls-11"
         d="m 77.29,133.76 v 0.11 a 2.52,2.52 0 0 1 -0.9,-0.62 6.46,6.46 0 0 1 -1.62,-2.88 2.77,2.77 0 0 1 -0.06,-0.85 1.29,1.29 0 0 1 0.28,-0.69 v 0 0 l 0.13,-0.09 a 1.57,1.57 0 0 1 0.45,-0.22 1.39,1.39 0 0 1 0.65,-0.06 v 0.12 -0.12 a 8.62,8.62 0 0 1 1.44,0.35 5.47,5.47 0 0 1 1.17,0.51 2.76,2.76 0 0 1 0.92,0.84 1.6,1.6 0 0 1 0.2,1.27 3.47,3.47 0 0 1 -1.39,2.25 1.53,1.53 0 0 1 -1.29,0.21 v -0.11 -0.11 a 1.34,1.34 0 0 0 1.1,-0.19 3.27,3.27 0 0 0 1.28,-2.1 1.38,1.38 0 0 0 -0.17,-1.09 2.39,2.39 0 0 0 -0.84,-0.76 6.07,6.07 0 0 0 -1.66,-0.65 c -0.25,-0.07 -0.47,-0.11 -0.62,-0.14 h -0.18 -0.07 a 1.1,1.1 0 0 0 -0.54,0 1.5,1.5 0 0 0 -0.4,0.19 l -0.08,0.05 v 0 0 L 75,128.9 l 0.09,0.07 a 1.1,1.1 0 0 0 -0.22,0.58 2.81,2.81 0 0 0 0.17,1.2 5.77,5.77 0 0 0 0.63,1.3 5.85,5.85 0 0 0 0.81,1 2.34,2.34 0 0 0 0.8,0.56 z"
         transform="translate(-43.35,-43.99)"
         id="path1283" />
      <path
         class="cls-13"
         d="m 109.52,149.3 a 3.45,3.45 0 0 0 0.73,-1.28 c 0.82,-2.45 -0.76,-5.2 -3.53,-6.12 a 5.11,5.11 0 0 0 -6.5,2.76 4.29,4.29 0 0 0 -0.14,3.26 c 2.53,1.38 7.4,1.78 9.44,1.38"
         transform="translate(-43.35,-43.99)"
         id="path1285" />
      <path
         class="cls-11"
         d="m 95.34,121.52 h -0.12 a 2.28,2.28 0 0 0 -0.16,-1 6,6 0 0 0 -1.8,-2.61 2.15,2.15 0 0 0 -0.66,-0.38 1.18,1.18 0 0 0 -0.61,0 v -0.11 0.1 0 l -0.12,0.07 a 1.81,1.81 0 0 0 -0.34,0.27 1.14,1.14 0 0 0 -0.28,0.46 v 0 a 8.05,8.05 0 0 0 -0.33,1.48 5.25,5.25 0 0 0 0,1.19 2.31,2.31 0 0 0 0.31,1 1.39,1.39 0 0 0 0.9,0.63 3.26,3.26 0 0 0 2.46,-0.24 1.29,1.29 0 0 0 0.64,-0.89 h 0.12 0.11 a 1.49,1.49 0 0 1 -0.74,1.06 3.5,3.5 0 0 1 -2.64,0.27 1.61,1.61 0 0 1 -1,-0.73 2.55,2.55 0 0 1 -0.35,-1.2 6.82,6.82 0 0 1 0.14,-1.85 5.59,5.59 0 0 1 0.24,-0.88 h 0.11 -0.12 a 1.39,1.39 0 0 1 0.34,-0.55 1.85,1.85 0 0 1 0.38,-0.31 l 0.16,-0.09 v 0 a 1.35,1.35 0 0 1 0.74,0.06 3.12,3.12 0 0 1 1.07,0.71 6.78,6.78 0 0 1 1.54,2.42 2.53,2.53 0 0 1 0.16,1.1 z"
         transform="translate(-43.35,-43.99)"
         id="path1287" />
      <path
         class="cls-11"
         d="m 119.45,148.67 a 5.91,5.91 0 0 1 -1.64,-1.78 C 117,145.62 113,144.71 113,144.71 l -0.73,0.45 c 0,0 4.28,0.89 5,1.83 1.34,1.77 2.19,1.68 2.19,1.68"
         transform="translate(-43.35,-43.99)"
         id="path1289" />
      <polygon
         class="cls-11"
         points="77.71,94.21 78.92,91.14 78.02,90.74 78.04,89.83 78.14,88.7 77.53,88.98 77.57,88.01 75.9,88.04 76.47,88.87 76.73,90.48 77.57,90.29 77.34,91.33 78.24,91.79 77.22,94.48 "
         id="polygon1291" />
      <path
         class="cls-11"
         d="m 110.54,132.79 c 0,0 1.34,6.63 -5.6,10.78 0,0 5.21,-4.33 5.6,-10.78"
         transform="translate(-43.35,-43.99)"
         id="path1293" />
      <polygon
         class="cls-14"
         points="47.65,111.26 40.65,88.26 58.65,70.01 67.37,91.6 "
         id="polygon1295" />
      <path
         class="cls-15"
         d="m 97.69,150.12 c 0,-0.1 -0.73,0.7 -0.85,0.69 a 1.59,1.59 0 0 1 -0.81,-2.5 c -0.9,-0.75 -2,-1.14 -2.07,-1.66 a 0.17,0.17 0 0 0 -0.28,-0.09 11.8,11.8 0 0 0 -2.2,2.35 c -0.69,1.13 -0.16,4 2.5,5.4 0.64,0.35 5.02,-0.78 3.71,-4.19 z"
         transform="translate(-43.35,-43.99)"
         id="path1297" />
      <path
         class="cls-16"
         d="m 109.12,132.5 c -1,-2.21 -4.54,-3.39 -4.54,-3.39 0,0 -3.36,3.58 -1.81,4.65 a 2.84,2.84 0 0 1 1,2.56 19.4,19.4 0 0 1 -5.45,6.27 l 0.64,3.16 4.32,0.94 a 26.54,26.54 0 0 0 5.87,-6.07 c 1.97,-3.5 1.33,-5.25 -0.03,-8.12 z"
         transform="translate(-43.35,-43.99)"
         id="path1299" />
      <path
         class="cls-15"
         d="m 103.44,146.33 a 2.35,2.35 0 0 1 -0.47,0.74 0.17,0.17 0 0 0 0.1,0.28 c 0.33,0.05 0.79,0.22 0.78,0.77 0,0.86 -2.06,3 -4.82,1.83 -2.76,-1.17 -3.19,-4.27 -2.5,-5.41 a 12.4,12.4 0 0 1 2.21,-2.35 0.17,0.17 0 0 1 0.27,0.1 4.19,4.19 0 0 0 1.31,2.37 5.8,5.8 0 0 0 3,1.44 0.17,0.17 0 0 1 0.15,0.23"
         transform="translate(-43.35,-43.99)"
         id="path1301" />
      <path
         class="cls-16"
         d="m 80.66,127.39 c 0,0 -12.52,-2.65 -4,7"
         transform="translate(-43.35,-43.99)"
         id="path1303" />
      <path
         class="cls-11"
         d="m 77.29,133.76 c -1.27,-0.43 -3.22,-3.67 -2.25,-4.86 a 1.64,1.64 0 0 1 1.14,-0.34 c 0,0 4.17,0.56 3.64,2.83 -0.46,1.94 -1.71,2.65 -2.53,2.37"
         transform="translate(-43.35,-43.99)"
         id="path1305" />
      <path
         class="cls-16"
         d="m 103.56,139.39 c 0,0 6.65,-12.14 -6.75,-18.18 a 11.39,11.39 0 0 0 -9.43,0.59 c 0,0 -10,4.09 -10.77,11.44 -0.77,7.35 1.76,15.08 12.83,15 3.83,0 9.69,-1.38 14.12,-8.89"
         transform="translate(-43.35,-43.99)"
         id="path1307" />
      <path
         class="cls-16"
         d="m 88.24,121.66 c 0,0 3.14,-12.39 8.07,-0.47"
         transform="translate(-43.35,-43.99)"
         id="path1309" />
      <path
         class="cls-11"
         d="m 95.34,121.52 c 0.17,-1.33 -1.87,-4.51 -3.37,-4.16 a 1.64,1.64 0 0 0 -0.81,0.88 c 0,0 -1.33,4 0.93,4.5 2,0.45 3.13,-0.36 3.25,-1.22"
         transform="translate(-43.35,-43.99)"
         id="path1311" />
      <path
         class="cls-17"
         d="m 80.64,141.35 c 2,3.46 6.33,4.85 10.66,3.73 a 12.69,12.69 0 0 0 3.09,-1.25 c 4,-2.27 6.25,-6.29 5.92,-10 v -0.32 a 7.71,7.71 0 0 0 -0.92,-2.75 c -2.42,-4.29 -8.83,-5.41 -14,-2.49 a 12.13,12.13 0 0 0 -2.55,1.91 c -3.21,3.13 -4.15,7.66 -2.17,11.16"
         transform="translate(-43.35,-43.99)"
         id="path1313" />
      <path
         class="cls-18"
         d="m 93.29,137.38 c 0.48,0.69 1.25,1 1.72,0.67 0.47,-0.33 0.44,-1.15 -0.05,-1.85 -0.49,-0.7 -1.26,-1 -1.72,-0.67 -0.46,0.33 -0.44,1.16 0.05,1.85"
         transform="translate(-43.35,-43.99)"
         id="path1315" />
      <path
         class="cls-18"
         d="m 85.51,141.79 c 0.49,0.69 1.26,1 1.72,0.67 0.46,-0.33 0.44,-1.15 0,-1.85 -0.44,-0.7 -1.26,-1 -1.72,-0.67 -0.46,0.33 -0.45,1.15 0,1.85"
         transform="translate(-43.35,-43.99)"
         id="path1317" />
      <path
         class="cls-18"
         d="m 100.24,135.43 c 0,0 -2.37,-5.85 -3.79,-5.19 0,0 -0.17,1.3 -0.64,1.57 -0.09,0.05 -1.31,-2.91 -3.28,-2.89 0,0 -4,5.14 -5.33,4.3 0.12,-0.21 1.62,-2.07 1,-2.86 -0.32,-0.45 -4.36,2 -3.8,7 -0.2,0.34 -1.1,-0.13 -1.85,-1.16 -1.42,-1.92 0.38,4.41 0.39,4.51 0.01,0.1 -0.5,0.14 -1.14,-0.16 -0.64,-0.3 1.72,3.41 2,3.75 0.28,0.34 -2.28,-0.81 -3.6,-3.49 a 9.4,9.4 0 0 1 0.87,-8.7 c 1.42,-1.89 3.78,-5.16 10.16,-5.58 6.79,-0.45 8.87,5.76 8.91,5.87 a 7.54,7.54 0 0 1 0,3"
         transform="translate(-43.35,-43.99)"
         id="path1319" />
      <path
         class="cls-11"
         d="m 99.05,123.34 c 0,0 9.19,5.39 3.89,14.72 0,0 3.07,-9.22 -3.89,-14.72"
         transform="translate(-43.35,-43.99)"
         id="path1321" />
      <rect
         class="cls-19"
         x="0.15000001"
         y="34.610001"
         width="130.32001"
         height="76.32"
         id="rect1323" />
    </g>
    <g
       id="g1604"
       transform="matrix(1.4952706,0,0,1.4644608,524.42114,23.848784)">
      <path
         d="m 15.5,70 c 1.4,-0.6 2.6,-2.3 3.4,-5.4 A 9.4,9.4 0 0 0 19.3,63 C 19.4,62 17.8,60.5 17.2,59.5 15,56.5 13.3,58 12.9,57.7 L 10.1,55.2 C 9.2,54.4 7.1,52.9 6.9,54.5 6.7,56.1 9.7,58.4 9.3,59 l -0.1,0.1 c -0.4,0 -1.1,0 -1.3,0.5 l -0.2,1 a 1,1 0 0 0 0.2,0.9 0.3,0.3 0 0 1 0,0.4 C 7.6,62 7.5,62.3 7.5,62.7 v 1.1 a 0.9,0.9 0 0 0 0.5,0.8 0.5,0.5 0 0 1 0.2,0.6 1.3,1.3 0 0 0 -0.1,0.6 2,2 0 0 0 0.3,1.1 9,9 0 0 0 4.4,3"
         class="j"
         id="path1444" />
      <path
         fill="#fbbf88"
         d="M 12.9,57.7 10.1,55.2 C 9.2,54.4 7.1,52.9 6.9,54.5 6.7,56.1 9.7,58.4 9.3,59 l -0.1,0.1 h 1.2 v -0.3 a 8,8 0 0 1 2.5,-1.1 z M 18.1,70 a 5.7,5.7 0 0 0 0,-2.6 c 0,0 -2.5,-0.6 -2.8,-2.8 -0.5,-4.3 -1.3,-3.3 -1.9,-3.4 a 6.3,6.3 0 0 1 0.2,3.6 3,3 0 0 1 -1.2,2.2 c -0.9,0.6 -2.4,0.4 -3.7,0.3 0.4,0.8 2.2,1.9 3.9,2.7"
         id="path1446" />
      <path
         d="m 21.1,70 2,-4.6 c 0,0 3.5,-4.9 2.2,-4.2 -2.4,2.1 -6.1,0.8 -6.1,0.8 0,0 0.8,5.3 -6.9,8"
         class="f"
         id="path1448" />
      <path
         fill="#dcad84"
         d="m 10.6,59 c -0.3,-0.6 0.1,1.5 1.3,2.1 a 3.6,3.6 0 0 0 2.3,0.1 4.4,4.4 0 0 1 -3.6,-2.2 z"
         id="path1450" />
      <path
         fill="#163860"
         d="m 39.1,70.8 c 0.3,-5.9 0.4,-12.1 0.4,-12.1 l -12.4,2 A 41,41 0 0 0 22.3,70 l 11.2,0.1 z"
         id="path1452" />
      <path
         d="m 22,70 3.2,-6.9 1.6,-2.3 0.3,0.7 A 64.2,64.2 0 0 0 23.4,70 m 8.2,-3.2 -0.1,0.2 z m 0.5,-0.5 -0.2,0.2 z m -1.5,1.6 -0.1,0.1 z m 4,-4 -0.2,0.1 z m -1.6,1.4 -0.1,0.2 z m -0.4,0.5 -0.2,0.2 z m -3.9,0.9 0.1,0.2 z m 0.4,0.6 0.1,0.2 z m -0.5,-0.9 0.1,0.2 z m 0.3,0.6 0.1,0.2 z m -0.7,-1.6 0.1,0.2 z M 28,65.1 28.1,65.3 Z M 27.9,64.8 28,65 Z m 0.4,1 0.1,0.2 z m 0.1,0.3 0.1,0.2 z"
         class="a"
         id="path1454" />
      <path
         fill="#dadad9"
         d="m 34.9,61.9 -4.3,4.7 -1.7,-2 c 0,0 -0.7,-3.5 0,-5.2 l 0.4,-0.8 5.9,0.7 z"
         id="path1456" />
      <path
         fill="#ffffff"
         d="m 38.3,56.2 h 1.8 l -0.2,1.7 -4.4,7.7 -2.9,-5.5 -0.7,-0.5 -4.4,5 a 13.2,13.2 0 0 1 -0.6,-4.8 c 0.1,-1 0,-1.8 0.7,-2.2 0.1,0 6.4,4.2 10.7,-1.4 z"
         id="path1458" />
      <path
         d="m 31.4,60.3 -2.6,3.9 a 6,6 0 0 0 1.2,3.1 l 2.8,-3.1 v -3.9 z"
         class="c"
         id="path1460" />
      <path
         d="M 31.1,60.8 A 1.5,1.5 0 0 0 32.8,61 V 60.5 L 31.4,60.4 Z"
         class="b"
         id="path1462" />
      <path
         d="m 21.1,70 c 1.2,-3.5 3.6,-8.8 6,-11.2 l 0.6,0.9 A 64.3,64.3 0 0 0 22.9,70 Z"
         class="f"
         id="path1464" />
      <path
         d="M 32.8,60.4 33,64 32.8,64.2 Z"
         class="g"
         id="path1466" />
      <path
         d="m 40,55.9 c 0,0 7,-2 7.3,-1.8 a 67.3,67.3 0 0 0 3,16.7 H 38.8 Z"
         class="f"
         id="path1468" />
      <path
         fill="#472a16"
         d="m 40,57.5 1.5,-0.2 a 12.3,12.3 0 0 0 2.2,6.4 c 0,0 -3.6,1.4 -4.4,2.7 L 42.7,66 A 36.1,36.1 0 0 1 41,70.6 h -2.1 z"
         id="path1470" />
      <path
         d="m 39.3,57.4 1.3,-1 a 13.9,13.9 0 0 0 1.8,6.6 c 0,0 -2.7,1.8 -3.1,3.4 l 3.8,-0.6 a 47.4,47.4 0 0 0 -2.6,5 h -1.9 z"
         class="e"
         id="path1472" />
      <path
         d="m 28.7,63.5 a 25.1,25.1 0 0 0 1.7,-2.3 l -1.8,2 a 0.8,0.8 0 0 1 0.1,0.3 z"
         class="g"
         id="path1474" />
      <path
         d="m 39.2,59.5 -3.7,6.1 3.6,-6.3 z"
         class="a"
         id="path1476" />
      <path
         d="M 28.8,64.2 28.9,64 a 8,8 0 0 0 1.1,3.3 5.1,5.1 0 0 1 -1.2,-3.1 z"
         class="b"
         id="path1478" />
      <path
         d="m 28.7,63.5 -1.2,1.1 1.2,-1.4 z"
         class="a"
         id="path1480" />
      <path
         d="m 33.7,59.7 c 0,0.6 -0.7,1 -1.6,1 -0.9,0 -1.6,-0.5 -1.6,-1 0,-0.9 0.7,-1 1.6,-1 0.9,0 1.6,0.1 1.6,1 z"
         class="c"
         id="path1482" />
      <path
         d="m 43.6,75.1 c -1,0.2 -2,-1.9 -2,-1.9 L 44.3,72 c 0.1,0 0.3,2.9 -0.7,3.1 z"
         class="d"
         id="path1484" />
      <path
         fill="#fcd7a9"
         d="m 38.7,66.4 c -3.9,0.3 -10,1.6 -10.3,4.3 -0.2,2.7 14.8,2 14.8,2 a 11.7,11.7 0 0 0 0.5,-2 c 0.1,-1.9 -0.5,-4.6 -5,-4.3 z"
         id="path1486" />
      <path
         fill="#dbac83"
         d="m 39.2,66.4 c 0,0 2.8,0.3 3.5,1.7 a 3.4,3.4 0 0 1 0.5,2.6 c -0.6,1.7 -3.3,2 -5.1,2 -3.3,0 -8.3,-1.1 -9.7,-2 -0.2,1.5 5.2,3.6 9.5,3.9 2.8,0.2 3,-1.8 6.8,-1.2 a 8.4,8.4 0 0 0 0.4,-2.7 C 45,68.6 44,65.9 39.2,66.4 Z"
         id="path1488" />
      <path
         d="m 44.1,70.8 a 7,7 0 0 1 -0.7,4.3 c 3.8,0.6 10.5,-2.4 11.9,-4.3 a 0.8,0.8 0 0 0 0.2,-0.4 c 0.6,-2 -0.8,-6.2 -2.7,-10.1 a 16,16 0 0 0 -5.6,-6.2 l -1.7,10.6 c -5,0.6 -6.2,1.7 -6.2,1.7 3.3,-0.2 4.6,2.1 4.8,4.4 z"
         class="f"
         id="path1490" />
      <path
         d="m 46.7,59.7 c 0,0 -0.8,3.8 -0.9,5 0,0 -2.2,-0.4 -6.5,1.7 a 12.3,12.3 0 0 1 6.1,-2.3 32,32 0 0 1 1.3,-4.4 z"
         class="d"
         id="path1492" />
      <path
         d="m 38.3,54.2 0.2,2.4 A 7.5,7.5 0 0 1 31.8,60 C 30,59.9 27.6,59.2 27.4,58.2 a 4.9,4.9 0 0 1 0,-2.4 z"
         class="j"
         id="path1494" />
      <path
         fill="#cdad87"
         d="M 37.6,57.7 A 19.5,19.5 0 0 1 26.9,57.6 L 27,56.1 37.8,54.5 Z"
         id="path1496" />
      <ellipse
         cx="36.599998"
         cy="55"
         class="d"
         rx="10.5"
         ry="3.9000001"
         id="ellipse1498" />
      <path
         d="m 19.1,50.1 c -2.1,-3.3 -7.2,1 -8.6,2.2 -1.4,1.2 0.5,-3.4 2.3,-4 0,0 -4.1,-0.2 -4.7,2.7 A 5.6,5.6 0 0 1 10,45.9 c 0,0 -4.1,3.4 -5,4.8 a 15.7,15.7 0 0 1 0.4,-2 l -3.1,0.5 c 0,0 -0.8,-7.9 4.6,-9.4 5.4,-1.5 -0.4,-0.7 -0.4,-0.7 0,0 -1.6,-2.9 -6.4,-1.7 0,0 2.1,-16.4 12,-17.6 0,0 -0.9,-3.5 -4.4,-2.8 0,0 0.5,-1.8 2,-1.8 L 6.9,13.8 c 0,0 8.5,-4.9 15.4,2.6 0,0 2.4,-11 2.4,-12.4 0,-1.4 0.1,-3 -0.4,-3.8 0,0 3.3,0.6 3.3,2.1 a 1.7,1.7 0 0 0 -0.5,-2 c 0,0 5.6,2.3 5.1,5 L 32.6,3 c 0,0 1.7,0.9 1.8,1.9 0.1,1 0.4,-2.4 0.4,-2.4 0,0 5.7,2.2 6,10.5 0,0 14.7,-5.5 19.6,9.4 l -3.7,-0.7 c 0,0 2.9,1.2 3.3,3.1 0,0 4.5,1.2 4.5,12.4 0,0 -1.1,-4.6 -4.5,-5.2 0,0 5,2.1 5.3,12.6 a 11.3,11.3 0 0 0 -3.5,-2.1 c 0,0 3.7,2.3 2.3,8.2 0,0 -0.6,-1.5 -3.5,-1.8 L 61,50 58.8,48.9 c 0,0 -7.1,0.6 -8.9,2.7 0,0 -0.3,-2.8 -2.5,-1.4 z"
         class="i"
         id="path1500" />
      <path
         fill="#fcd4a9"
         d="m 51.9,45.2 c -0.5,6.2 -4.6,12.6 -13.1,12.3 -1.8,0 -3.5,0.4 -5.4,0.3 C 25.9,57.2 18.6,58.2 17.7,47.5 L 17.5,47 a 11.4,11.4 0 0 1 -0.6,-4.5 c 0.6,-7.7 9.3,-13.5 19,-12.7 a 23,23 0 0 1 5.1,1 c 6.9,2.3 11.4,8.1 10.9,14.4 z"
         id="path1502" />
      <path
         fill="#fbc18d"
         d="m 28.3,30.5 a 21.7,21.7 0 0 1 7.6,-0.8 23,23 0 0 1 5.1,1 c 7,2.4 11.5,8.2 11,14.4 -0.2,2.8 -2.2,12 -12.4,12.4 0,0 13.8,-9.3 2,-19.5 A 43.8,43.8 0 0 0 28.3,30.5 Z"
         id="path1504" />
      <path
         d="m 26.3,43.9 c 0,0 0.4,-2.9 -1.6,-2.6 a 1,1 0 0 1 0.5,1.3 c 0,0 -1.1,-3.3 -5.4,0 0,0 1.4,-0.5 1.9,-0.2 0,0 -1.9,0.2 -2,1.2 0,0 0.8,-0.2 1.1,0.1 0,0 -1.2,1 0.5,2.3 0,-0.1 2.8,-2.6 5,-2.1 z"
         class="h"
         id="path1506" />
      <g
         fill="#232221"
         id="g1512">
        <ellipse
           cx="24.6"
           cy="47.900002"
           rx="2.0999999"
           ry="1.4"
           transform="rotate(-85.6,24.6,47.9)"
           id="ellipse1508" />
        <ellipse
           cx="38.400002"
           cy="47.700001"
           rx="2.0999999"
           ry="1.4"
           transform="rotate(-85.6,38.4,47.7)"
           id="ellipse1510" />
      </g>
      <path
         d="m 38.1,44.8 c 0,0 3.2,0 4.7,1.6 0,0 2.2,-1 -0.2,-2.2 a 1.7,1.7 0 0 1 1.2,0.1 c 0,0 0,-1.5 -2.4,-1.4 A 1.8,1.8 0 0 1 43,42.8 c 0,0 -2.2,-2.3 -3.7,-0.2 a 1.7,1.7 0 0 1 1,-1.2 c -0.8,0 -3.4,-0.2 -3.1,3.2 z"
         class="h"
         id="path1514" />
      <path
         fill="#744e31"
         d="m 44.1,70.8 a 7,7 0 0 1 -0.7,4.3 c 3.8,0.6 10.5,-2.4 11.9,-4.3 a 0.8,0.8 0 0 0 0.2,-0.4 31.5,31.5 0 0 1 -6.1,1.3 24.5,24.5 0 0 1 -5.3,-0.9 z"
         id="path1516" />
      <path
         d="m 21.7,70 a 73,73 0 0 1 5.6,-9.8 1,1 0 0 0 0,-1.4 l -4.7,3.6 -0.1,1.5 -1.1,0.9 -1,5.2"
         class="e"
         id="path1518" />
      <path
         d="m 28.8,51.9 c -2,-1.6 -8.2,-2.8 -7.5,7.2 0,0 0.4,-1.6 1.4,-1.5 0,0 -0.4,2.5 0.9,3 0,0 0.6,-2.5 1.6,-1.9 0,0 1.8,3 3.5,3.2 0,0 -0.4,-2.1 0.7,-2.2 l 1.7,2.5 1.6,-2.8 c 0,0 1.1,1.3 0.4,1.8 A 1.9,1.9 0 0 0 35,59.6 c 0,0 1.9,0.7 1.5,2.3 a 3.2,3.2 0 0 0 1.4,-2.7 l 1.6,2 0.4,-3.3 c 0,0 2.6,1 2.6,2.1 A 5,5 0 0 0 41,55.2 l 2.6,0.5 c 0,0 -5.7,-6.6 -10.4,-3.1 -0.8,0.6 -1.7,1.4 -4.4,-0.7 z"
         class="h"
         id="path1520" />
      <g
         fill="#dadbd9"
         id="g1528">
        <path
           d="m 35.7,55 c 0,0 6.5,0.1 6.8,4.9 -0.1,0 -2.5,-4.4 -6.8,-4.9 z m -7,6.9 c 0,0 -0.1,-4.7 1.8,-5.9 0,0 -3.9,1.3 -1.8,5.9 z m 7.7,0.1 c 0,0 1.1,-3.2 -0.7,-4.3 0,0 3.3,0.9 0.7,4.3 z m -5.3,0.2 c 0,0 1.6,-3.5 1.3,-5.1 a 2.2,2.2 0 0 1 0.5,1.1 c 0.1,0.9 -0.1,2.3 -1.8,4 z"
           id="path1522" />
        <path
           d="m 31.9,55.6 c 0,0 1.6,3.2 0.6,4 l 0.1,0.5 a 1,1 0 0 1 0.7,0.8 c 0,0.1 1.1,-2.6 -1.4,-5.3 z m -3.2,6.2 c 0,0 -2.8,-4.3 -0.5,-6.2 0,0 -4,3.3 0.6,6.4 m -5.2,-1.4 c 0,0 1,-3.4 2.6,-3.5 0,0 -3.7,-0.9 -2.6,3.5 z"
           id="path1524" />
        <path
           d="m 21.4,59.1 a 2.8,2.8 0 0 1 2.8,-1.7 L 25,57 c -0.1,0.1 -3.2,-1.2 -3.6,2.1 z m 8.8,-4.9 c 0,0 -6.4,-6 -8.3,1.5 0,0 1.4,-2.9 3.3,-2.6 0,0 -1,0.4 -1,1.3 0.1,0 1.9,-2 6,-0.2 z m 2.4,-0.4 c 0,0 4.7,-3 8.2,0.4 -0.1,0 -2.6,-1.7 -8.2,-0.4 z"
           id="path1526" />
      </g>
      <path
         d="m 19,50.1 c 0,0 -0.2,-10.2 2.3,-10.2 0,0 1.1,1.8 1.9,1.9 0.2,0 0,-5.2 2.9,-6.4 0,0 9.2,5.1 10.6,3 -0.3,-0.2 -3.6,-2 -3.2,-3.5 0.2,-0.8 7.4,0 9.8,7.7 0.5,0.4 1.7,-1.1 2.2,-3.1 0.8,-3.7 2.1,6.9 2.1,7.1 0,0.2 1,-0.2 1.8,-1.1 0.8,-0.9 -0.4,5.7 -0.7,6.4 1.8,-1.2 3.1,-1.2 3.8,-6.4 0.6,-4.7 -2.9,-11 -6.8,-13.6 C 42.5,29.8 35.2,28.1 26.1,30.8 15.2,34 16.6,43.5 16.7,45 c 0.2,2.6 2.2,4.3 2.3,5.1 z"
         class="i"
         id="path1530" />
      <g
         class="h"
         id="g1542">
        <path
           d="m 19,48.4 c 0,0 -2.4,-2.6 -6.5,0.7 0,0 5.8,-1.1 6.5,1 z M 8.5,45.1 c 4.3,-2.6 6.6,-1.2 6.6,-1.2 -4.6,-0.2 -5.3,3.5 -5.3,3.5 A 10.3,10.3 0 0 1 19.1,46 l 0.1,-1.4 0.2,-1.4 C 12.5,39.8 8.5,45.1 8.5,45.1 Z M 6.6,37.2 c 0,0 8.9,-4.5 14.6,2.7 A 18.3,18.3 0 0 0 6.6,37.2 Z M 42.7,15.1 c 0,0 12.3,-3.4 17.6,7.1 0,0 -6.4,-8.7 -17.6,-7.1 z m 21.7,22.1 c 0,0 -0.3,-10.4 -5.2,-11 a 6.8,6.8 0 0 0 -2.5,-4.6 c 0,0 2.7,1.1 3.1,3 0.1,0 5.4,1.3 4.6,12.6 z M 41.1,15.9 c 0,0 -2.3,-10.6 -6.3,-13.5 0,0 6,2.2 6,10.5 z M 10,13.6 c 0,0 10.8,-3.3 16.6,11.4 A 23.7,23.7 0 0 0 10,13.6 Z"
           id="path1532" />
        <path
           d="m 10,16.4 c 0,0 3.8,-0.5 5.1,4.4 -0.1,0 0.6,-6.7 -5.1,-4.4 z M 0,37.2 c 0,0 4.7,-14.5 12,-17.4 0,0 -9.4,0.1 -12,17.4 z m 25.5,-1.9 c -3.2,-1.2 -10.9,-5.1 -9.3,-10 0,0 -3.5,5.1 3.5,8 0,0 -4.1,-1.1 -5.7,0.1 0,0 6.7,1 10.7,3.2 a 3.5,3.5 0 0 1 1.5,-1.2 z m 11.2,3.1 c 0,0 -12.6,-6.7 -4.5,-7.4 0,0 -14.4,-1.9 4.5,7.4 z m 0,0 c 0,0 -0.7,2.3 -9.2,-2.2 0,0 6.6,2.6 9.2,2.2 z M 24.2,0 c 0,0 1.3,2.5 -2,16.3 0,0 7.9,-12.1 2,-16.3 z m 14.5,25.4 c 0,0 4.7,-4.6 8.7,-2.9 a 7,7 0 0 0 -7.6,-1.1 11.8,11.8 0 0 1 2.9,-1.6 c 0,0 -2.7,-0.1 -3.6,0.6 0,0 -1.7,-4.7 -11,-2.5 0,-0.1 10,-0.9 10.6,7.5 z m 14.9,7.2 A 10.7,10.7 0 0 0 55.3,28 c 0.8,-5 -4.8,-3.5 -4.8,-3.5 0,0 4.3,-0.4 3.8,3.2 -0.5,3.6 -6.7,7 -6.7,7 0.5,-2.2 0.5,-4.7 -1.7,-5.9 0,0 1.6,4 -1.1,10.8 -0.6,-12 -8,-11.4 -8,-11.4 6.2,1.5 7.2,11.9 7.2,13.1 a 8.3,8.3 0 0 1 -0.7,1.3 c 0,0 1,1.2 2.5,-3.7 l 0.7,1.8 c 4.5,-9.8 14.8,-6.1 14.8,-6.1 -1.5,-3 -6.2,-2.4 -7.7,-2 z M 37.4,16.3 c -2.2,-2.1 -4.6,-4.7 -5,-6.7 A 14.5,14.5 0 0 1 32.3,6 C 32.6,3 31,1.3 26.9,0.1 c 0,0 3.4,1.7 3.5,8.5 A 10.8,10.8 0 0 0 28,6.8 c 2.2,1.6 1.5,3.5 2.3,4.7 0.8,1.2 7.1,4.8 7.1,4.8 z"
           id="path1534" />
        <path
           fill="#ebecec"
           d="m 63,35 c 0.7,0.2 2.1,4.9 2.2,9.4 a 11.3,11.3 0 0 0 -3.5,-2.1 c 0,0 3.7,2.3 2.3,8.2 0,0 -0.6,-1.5 -3.5,-1.8 l 0.4,1.1 -2.2,-1.1 c 0,0 -8.3,1.3 -10.2,3.5 0,0 1.2,-6.9 0.8,-6.5 -1.2,1.2 -1.7,1 -1.7,1 l -1,-6 C 46.4,39.1 51.5,31 63,35 Z"
           id="path1536" />
        <path
           d="m 55.4,47.7 a 5,5 0 0 1 5.5,1 c 0.2,0.2 0.1,1.2 0.1,1.2 l -2.2,-1.1 c 0,0 -8.1,2 -10.3,3.5 a 15.6,15.6 0 0 1 6.9,-4.6 z"
           id="path1538" />
        <path
           d="m 52.8,45.1 a 4.8,4.8 0 0 0 4.5,-3.7 16,16 0 0 0 0.7,-3.8 c 0,0 1.2,5.3 0.2,6.3 a 7,7 0 0 1 5.9,6.7 c 0,0 -3.3,-5 -11.4,-4.3 a 16.7,16.7 0 0 0 -3.2,0.8 v -1.3 z m 12.4,-0.6 c 0,0 -2,-6.9 -4.7,-6.8 0,0 4,-1.7 4.7,6.8 z"
           id="path1540" />
      </g>
      <path
         fill="#45413e"
         d="m 54.7,64.9 a 15.4,15.4 0 0 0 -2.7,5.8 9.9,9.9 0 0 0 0.1,2.4 8.3,8.3 0 0 0 3.3,-2.4 l 0.2,-0.4 c 0.6,-1.7 -0.9,-5.4 -0.9,-5.4 z"
         id="path1544" />
    </g>
  </g>
  <style
     id="style1442">.a{fill:#0c233b}.b{fill:#1580af}.c{fill:#159ad6}.d{fill:#5b4026}.e{fill:#693521}.f{fill:#815a37}.g{fill:#c1c0bd}.h{fill:#e8e7e6}.i{fill:#f6f7f7}.j{fill:#fdd5a6}</style>
</svg>
